<svg id="Group_173" data-name="Group 173" xmlns="http://www.w3.org/2000/svg" width="178.637" height="181.176" viewBox="0 0 178.637 181.176">
  <path id="Path_1698" data-name="Path 1698" d="M304.611,177.4l1.615.857-1.615,5.427-3.57,3.713-2.142,1.571-1.143,4.57-1.285,4.569-.714,2.714,1.714,6-.428,4.855-1.857,2.57-7.14,5.569-.714,4.142v3l-3.284,2H280.9l-2.285,1.286-4.855.857-3.855.714-6-.714-4.569-.571-.715-1.428-5-.571-5.284-2-2.142-9.14-12-2.285-5.141-3.713-7.569-1-5.426-6.569-1.571-7.711-3.284-.286-.714-4.855,2.356-1.714.286-6.284L210.5,176.4l1.642-4.427,2.428-1.143,3.427-9,6.284-11.853,7.426-7.14-1.286-3.284-3.57-6h2.142l-1.286-2.142L227,125.847l1.428-.571.143-4,4.426,4,1.428.428-.857-5.141,2.285-7.426.286-3.428,3.284,6.212,1.714,1.714.428,3.571,1.857-.143,1.285-.429,2.57-12.139,4,6.712,1.428,4.855.429,2.285,1.56-1.571,1.582-10.567,2.093-1.714,3.048,7.569-.143,2.284,4.427-7,3-2.857-.428,4.713-.286,3-1.286,2.57,1.428,1.142,2.57-.143,2-2.142,1.285,1.571-.286,2,1.142,2.285,3.713,7.426,2,3.427-4.427,7,2.856,2.142L291.4,154.051l6.855.857,2.713,6.855,1.428,6.427.714,1.963-.428,1.178-1,2.428v1.571l1.286.428" transform="translate(-167.937 -78.139)" fill="#fff"/>
  <g id="Group_172" data-name="Group 172">
    <g id="Group_170" data-name="Group 170" transform="translate(7.207 26.671)">
      <g id="Group_168" data-name="Group 168" transform="translate(0)">
        <path id="Path_1699" data-name="Path 1699" d="M302.145,173.108c.984.41,1.9.8,2.818,1.17a1.643,1.643,0,0,1,1.1,1.774c-.038,2.011-.022,4.028-1.251,5.762-.97,1.368-1.972,2.716-3.015,4.03a4.745,4.745,0,0,1-2.909,1.871,13.915,13.915,0,0,0-.2,1.428,17.773,17.773,0,0,1-1.609,6.717,8.341,8.341,0,0,0-.2,5.973,18.409,18.409,0,0,1,.4,8.425,3.307,3.307,0,0,1-.989,1.854,61.433,61.433,0,0,1-6.853,5.63c-.256.191-.505.393-.768.574a1.46,1.46,0,0,0-.65,1.318c-.007,1.676-.1,3.351-.1,5.027a1.834,1.834,0,0,1-1,1.774c-1.316.67-2.656,1.295-4.007,1.893a1.3,1.3,0,0,1-.928.019,1.264,1.264,0,0,0-1.428.314,4.909,4.909,0,0,1-3.309,1.178c-1.152.09-2.316.033-3.474.025a1.689,1.689,0,0,0-1.318.377,1.929,1.929,0,0,1-1.115.3c-.916.06-1.836.059-2.754.083-.08,0-.174.036-.237.005-1.212-.589-2.545-.132-3.812-.47a26.347,26.347,0,0,0-3.916-.523,2.494,2.494,0,0,1-2.4-1.477c-.36-.018-.678-.027-.994-.052a8.912,8.912,0,0,1-1.669-.162q-3.661-1.014-7.292-2.134c-.322-.1-.588-.489-.8-.8a1.471,1.471,0,0,1-.221-.8c.019-1.881-.8-3.56-1.259-5.324a3.184,3.184,0,0,0-2.707-2.218c-2.627-.648-5.264-1.266-7.861-2.023a9.248,9.248,0,0,1-3.943-2.206c-2.084-2.054-4.689-2.395-7.405-2.467-.479-.013-.96-.013-1.44.005a3.271,3.271,0,0,1-2.459-1.036,24.228,24.228,0,0,1-4.071-5.54,23.657,23.657,0,0,1-1.7-3.39,8.108,8.108,0,0,1-.7-3.593,1.77,1.77,0,0,0-.121-.529,6.269,6.269,0,0,1-1.448-.019,2.153,2.153,0,0,1-1.629-1.709,14.978,14.978,0,0,1-.7-4.221c.06-1.154.174-1.4,1.281-1.857.182-.075.356-.17.517-.249.111-1.9.234-3.76.31-5.623a1.818,1.818,0,0,0-.324-.82,9.741,9.741,0,0,1-.561-.885,16.415,16.415,0,0,1-.973-8.656,6.8,6.8,0,0,1,.337-1.254,1.272,1.272,0,0,1,1.355-.963c.956.1,1.235-.527,1.493-1.219.763-2.048,1.487-4.112,2.288-6.145a47.926,47.926,0,0,1,6.038-10.955c1.062-1.439,1.986-2.979,3.026-4.434a23,23,0,0,1,5.384-5.51,4.37,4.37,0,0,0,.44-.414c-.242-.925-1.334-1.6-.742-2.723-1.647-1.907-3.566-3.668-3.489-6.53l1.139-.54-.415-1.47.94-.458c-.4-1.093-.846-2.152-1.164-3.249a5.084,5.084,0,0,1-.111-1.774c.07-.891.2-.977,1.171-1.246-.05-1.018-.137-2.045-.141-3.072a5.749,5.749,0,0,1,.388-3.152c.425.654.731,1.04.948,1.471a13.381,13.381,0,0,0,3.017,3.842,7.693,7.693,0,0,0,.891.593c0-.5.013-.841,0-1.18a19.2,19.2,0,0,1,.8-6.382,24.462,24.462,0,0,0,1.09-6.929,14.792,14.792,0,0,0-.324-2.148,11.928,11.928,0,0,1,4.412,4.371,13.467,13.467,0,0,1,.764,1.884c.2.582.227,1.228,1.009,1.45.218.062.367.5.473.793a21,21,0,0,1,.86,2.615,2.335,2.335,0,0,0,1.265,1.779l1.167-.481c.082-1.186.144-2.459.261-3.727a25.447,25.447,0,0,1,1.813-7.421,37.268,37.268,0,0,0,1.089-3.6,1.552,1.552,0,0,1,.466.247,14.179,14.179,0,0,1,2.8,4.574,3.723,3.723,0,0,0,.967,1.434,3.651,3.651,0,0,1,.987,2.747c.021.877,0,1.756,0,2.583,1.4,1.021.891,2.414.849,3.713a6.945,6.945,0,0,0,.65-2.722c.216-1.7.408-3.41.729-5.093A11.725,11.725,0,0,1,256.788,107a2.806,2.806,0,0,1,1.655-1.472c.554-.127.566-.591.567-1.049a3.847,3.847,0,0,1,.16-1.217,4.681,4.681,0,0,1,1.526,2.767c.454,2.259.882,4.524,1.343,6.9.256-.333.485-.635.718-.933a11.593,11.593,0,0,1,6.9-5.416c-.433,1.408-.855,2.514-1.1,3.657a32.476,32.476,0,0,0-.477,3.563c-.119,1.174-.176,2.353-.278,3.774,1.177-.952,1.267-2.265,2.234-3.345v3.712a5.314,5.314,0,0,0,1.647-1.866c.369-.6.68-1.231,1.04-1.89,1.257,1.55,1.365,3.379,1.741,5.249.26-.507.564-1,.771-1.526a6.268,6.268,0,0,1,1.839-2.479,42.515,42.515,0,0,0,5.91-5.77,2.736,2.736,0,0,1,.562-.357,9.742,9.742,0,0,1,.192,1.086c.133,2.591.215,5.185.383,7.774a25.189,25.189,0,0,1-2.17,12.136,9.04,9.04,0,0,0-.555,1.542c1.184-.822,1.584-2.2,2.465-3.252a13.385,13.385,0,0,1-1.74,6.429c-1.075,2.07-3.015,3.355-4.639,5.061.268.183.477.342.7.475a45.2,45.2,0,0,1,10.438,7.987,32.519,32.519,0,0,1,2.1,2.613,1.13,1.13,0,0,0,1.1.526,23.16,23.16,0,0,1,3.355-.011,13.943,13.943,0,0,1,3.016.656,3.36,3.36,0,0,1,1.845,2.107,31.223,31.223,0,0,1,2.416,8.132,11.259,11.259,0,0,0,.647,2.668,6.617,6.617,0,0,1,.132,4.461c-.318,1.107-.7,2.2-1.087,3.409m-62.838,11.857-3.466.859c-1.149.314-2.3.611-3.447.948-1.183.348-2.364.708-3.528,1.113-1.072.372-2.121.811-3.18,1.221a20.875,20.875,0,0,0,3.13-.768c2.056-.624,4.113-1.243,6.162-1.889.335-.106.841-.068.856-.633a5.988,5.988,0,0,0,3.455-.873l1.458-.2-.076-.293-1.363.515m45.624,2.91c.688.7,1.373,1.4,2.076,2.085.025.025.217-.121.332-.187,4.113,3.645,7.056,7.921,7.262,13.881a2.1,2.1,0,0,0,.328-1.915c-.453-1.776-1.019-3.524-1.442-5.306a14.034,14.034,0,0,0-3.16-5.839c-.243-.288-.534-.536-.8-.8l-.078.08.52,1.123.023-.021a8,8,0,0,1-.824-.8,12.948,12.948,0,0,0-3.814-3.178,4.359,4.359,0,0,0-.762-.255l.849,1.145-.5-.023a3.723,3.723,0,0,0-2.856-1.734l2.844,1.747M235.678,115.59c.56.1,1.068-.536,1.717.09a14.644,14.644,0,0,0-.794-5.774c-.342,1.967-.648,3.719-.948,5.473a.636.636,0,0,0,.054.233,5.9,5.9,0,0,0-1.283,4.221.439.439,0,0,0,.23-.268c.365-1.094.739-2.186,1.075-3.29a1.95,1.95,0,0,0-.051-.687m57.179,76.842-1.316-1c.587,1.1,1.161,2.018,1.578,3s.675,2.038,1.007,3.06c.318.975.641,1.947.961,2.92l.258-.066c-.233-1.286-.469-2.57-.7-3.857a11.984,11.984,0,0,0-1.837-4.1l1.078.586c-.893-1.848-4.486-4.9-6.136-5.252.64.472,1.192.854,1.716,1.27a13.426,13.426,0,0,1,3.386,3.438m-35.18-55.162c.113-.1.294-.183.328-.3.5-1.788,1.013-3.571,1.431-5.377a1.693,1.693,0,0,0-.526-1.9,14.73,14.73,0,0,0,.135-2.016,9.333,9.333,0,0,1,.658-2.739,27.543,27.543,0,0,1,1.089-3.891,31.33,31.33,0,0,0,1.172-5.107,8.4,8.4,0,0,0-2.574,7.268l-.933-.525c.158,2.409.307,4.7.456,7v1.682c-1.262-.072-1.635.6-1.824,1.579-.236,1.211-.583,2.4-.9,3.6a19.745,19.745,0,0,0,.071,10.655,8.99,8.99,0,0,0,.59-1.593,3.451,3.451,0,0,0-.022-1.775,3.857,3.857,0,0,1-.1-2.081c.093-.832.208-1.664.268-2.5a5.437,5.437,0,0,0-.156-.765c.607-.225.415-.8.592-1.21.013-.029.16,0,.244.007l-.619,4.015a7.413,7.413,0,0,0,.618-4.022M232.945,127.18h0L231.936,126c.633,3.865,2.394,8.065,3.82,9.083a12.282,12.282,0,0,1-1.815-7.012l1.176-.127c-.341-.765-.649-1.459-1.032-2.32l1.923.263a21.9,21.9,0,0,1,.43-6.2,12.793,12.793,0,0,0,.036-2.859,2.976,2.976,0,0,0-.292-.748c-.237.615-.416,1.011-.544,1.423-.375,1.219-.684,2.461-1.11,3.662a2.818,2.818,0,0,0,.2,2.3c.183.367.269.637.006.973a.713.713,0,0,1-.968.15c-.422-.19-.828-.412-1.312-.656-.107,1.306.6,2.277,1.038,3.469l-.546-.218m28.627,15.972c.138-1.561.276-3.122.432-4.892a5.792,5.792,0,0,0-.631,3.244c.09.544.131,1.1.2,1.644.245,1.305.07,2.7.892,3.886a2.519,2.519,0,0,1,.184.958c-.612-1.4-2.164-3.778-2.825-4.108a7.958,7.958,0,0,0-.454,3.994c.349,1.337.741,2.663,1.128,3.99.024.083.17.131.257.2a.734.734,0,0,0,.392,1.036l-.416-1.016c.024-.369.048-.738.074-1.133.66.2.8.98,1.623.812-.161-.907-.316-1.78-.5-2.8l1.751,1.251c-.033-.647-.032-1.063-.079-1.474-.119-1.029-.272-2.054-.389-3.083a24.62,24.62,0,0,1,.374-7.974,12.589,12.589,0,0,1,.533-1.537l.246.005c.282,1.008-.193,2.26.889,3.112.169-.5.29-.954.473-1.381a14.321,14.321,0,0,0,1.008-4.287,26.233,26.233,0,0,1,.859-4.933c.877-2.893,1.968-5.721,2.963-8.577a4.4,4.4,0,0,0,.122-.611c-.9.886-1.963,1.611-2.11,2.962l.04-.042a3.847,3.847,0,0,0-.668.788,35.665,35.665,0,0,0-2,4.6,14.174,14.174,0,0,0-.517,7.093,10.938,10.938,0,0,1,.117,1.51,32.553,32.553,0,0,1-.958-4.422,9.022,9.022,0,0,0-1.151-3.25c-.214-.37-.41-.853-1.087-.818.164.619.337,1.143.441,1.681a19.588,19.588,0,0,1-.454,7.59,3.2,3.2,0,0,0-.036.908,4.663,4.663,0,0,1,.038.8,9.352,9.352,0,0,0-.16,4.548c-.27-.126-.434-.2-.6-.281m-6.035-30.281c.735-.443.455-1.394,1-1.982.023.136.08.253.052.346a21.691,21.691,0,0,0-.962,5.528.758.758,0,0,1-.215.513,1.666,1.666,0,0,0-.385,2.016c-.893,1.044-.973,2.418-1.715,3.656l-2.837-2.965c.07.422.116.61.131.8.18,2.186.369,4.37.517,6.558a2.163,2.163,0,0,1-.229,1.145c-.385.69-.874,1.322-1.338,2l-1.418-.837v2.987l.1.015c.079-.6.158-1.2.258-1.969.235,2.324.45,4.461.666,6.6l-.126.031-.26-.867a10.681,10.681,0,0,0,1.55,6.017c.246.482.7.7,1.475.753a11.817,11.817,0,0,1-1.223-5.2c.55,1.255.3,2.738,1.261,4.176l-.517-3.906.223-.025.563,3.123a21.241,21.241,0,0,0,.047-2.258c.047-1.556.138-3.111.229-4.664a14.264,14.264,0,0,1,.212-2.263,9.3,9.3,0,0,0-.22-5.992c-.345-.787.248-1.322,1.1-1.089a11,11,0,0,1,1.184.479c-.069-.81-.129-1.53-.186-2.2.915-.338.955.522,1.474.861.21-.744.414-1.38.568-2.028a22.892,22.892,0,0,0,.7-7.118,19.294,19.294,0,0,1,.409-6.19,1.619,1.619,0,0,0-.082-1.353,13.937,13.937,0,0,0-1.977,5.327l-.127,1.119.246,0q-.072-.573-.145-1.146m12.385,61.564-1.5-1.17.464.965-.154.091-1.278-1.574c-.336.817.486,1.05.528,1.729l-1.3-1.178.206.974c-.505-.153-.45.265-.538.516l-.8-.408.438,1.111-.84-.515c-.518.467-1.021.922-1.525,1.374a15.5,15.5,0,0,1-7.9,3.751c-1.376.236-2.78.316-4.172.45-2.864.275-5.725.643-8.6.772a38.224,38.224,0,0,0-6.5.983c-2.687.59-5.352,1.306-7.988,2.1-3.479,1.042-6.92,2.213-10.379,3.32-1.1.353-2.213.682-3.322,1.017-.361.109-.7.256-.719.692a7.1,7.1,0,0,0,.918,4.467,2.957,2.957,0,0,0,.543-.067,5.331,5.331,0,0,0,.773-.319,63.851,63.851,0,0,1,7.852-3.552c2.858-1.021,5.644-2.247,8.506-3.257,4.371-1.543,8.861-2.684,13.364-3.786,6.173-1.51,12.36-2.932,18.617-4.05a78.646,78.646,0,0,1,11.411-1.414c1.8-.055,3.6-.112,5.391-.243a80.136,80.136,0,0,1,13.535.25c2.422.232,4.839.558,7.24.951,1.476.242,2.918.691,4.355,1.042.428-1.126.615-2.515.3-2.941a4.754,4.754,0,0,0-3.637-2.242,25.343,25.343,0,0,0-3.585.142c-3.5.342-6.993.737-10.49,1.1-3.138.33-6.274.681-9.416.964a9.521,9.521,0,0,1-5.575-.991,1.6,1.6,0,0,0-1.021-.207,2.327,2.327,0,0,1-2.327-.447c-.151-.139-.434-.135-.656-.2.047-.129.172-.3.127-.377-.521-.88-1.069-1.745-1.615-2.623-.5.226-.384.559-.163.871.46.651.942,1.285,1.416,1.926M249.7,144.008c-.778-.3-.731-.958-.672-1.6a11.421,11.421,0,0,1,.224-1.158c-3.524.658-5.91-.92-5.7-3.764-.532.262-1.013.549-1.53.743-1.306.493-2.609,1.038-4.042.361a1.33,1.33,0,0,0-.9.135,18.872,18.872,0,0,0-4.966,2.867,42.859,42.859,0,0,0-6.725,7.252,70.724,70.724,0,0,0-10.112,19.767,2.348,2.348,0,0,0-.054.515,1.023,1.023,0,0,0,.219,0q5.187-1.84,10.372-3.685c.81-.289,1.17-.145,1.5.654a7.906,7.906,0,0,1,.281.916c.167.6.5.634.877.388.166-1.088.313-2.073.469-3.056a1.086,1.086,0,0,1,.783-.941c3.926-1.438,7.744-3.186,11.838-4.15a6.536,6.536,0,0,0,1.019-.341,55.926,55.926,0,0,1,8.017-2.359,17.7,17.7,0,0,1,5.211-.627,2.883,2.883,0,0,1,2.219.691,30,30,0,0,0,5.771,4.623,3.349,3.349,0,0,0,1.451.483,5.263,5.263,0,0,0,5.487-4.271,1.651,1.651,0,0,1,1.145-1.526c1.372-.415,2.715-.956,4.109-1.267,4.162-.931,8.343-1.776,12.516-2.656l1.061-.224a40.626,40.626,0,0,0-12.748-10.263,9.371,9.371,0,0,0-.385,1.406,15.555,15.555,0,0,1-2.76,7.449c-1.034,1.467-2.14,2.889-3.3,4.261a3.558,3.558,0,0,0-1.007,1.952,1.635,1.635,0,0,1-1.436,1.549,16.585,16.585,0,0,1-3.314.4,5.99,5.99,0,0,1-2.743-.71c-2.009-1.181-3.647-3.544-2.3-6.431a3.458,3.458,0,0,0,.128-1.064c-3.514-.527-5.35-1.98-4.869-3.743.653,2.052,1.713,3.034,3.587,3.3.377.053.913.2.958-.359.048-.589-.513-.319-.816-.357a2.955,2.955,0,0,1-2.885-3.059c-.025-.3-.107-.6-.179-1-.433.086-.772.171-1.117.219a5.222,5.222,0,0,1-4.727-1.367q.863.384,1.725.768a4.754,4.754,0,0,0,3.38.2c.477-.141.7-.369.369-.877a5.02,5.02,0,0,1-5.594-2.089,2.107,2.107,0,0,0,.164,2.045m15.347,83.86a.679.679,0,0,1,.1-.1,3.651,3.651,0,0,0,1.03-2.357c.071-.377-.05-.884.588-1.156-.122,1.6-.235,3.1-.353,4.643a11.924,11.924,0,0,0,2.154.611,13.035,13.035,0,0,0,2.262-.172c.456-.037.662-.276.823-.713.656-1.778-.2-3.434-.351-5.144a.267.267,0,0,0-.113-.2c-.676-.276-.283-.875-.542-1.4l1.8.3a14.658,14.658,0,0,0,.01,1.637c.15,1.265.281,2.54.556,3.782.2.886.664,1.062,1.534.827a3.261,3.261,0,0,1,.615-.216c.865-.038,1.738.023,2.6-.072a1.32,1.32,0,0,0,1.315-1.424c.038-.475,0-.956,0-1.435-.006-1.142-.017-2.284-.012-3.426,0-.1.113-.2.172-.293l.448.169.29-.53a8.855,8.855,0,0,1,0,2.052c-.05.666.371,1.237.239,1.984-.1.555.452,1.223.658,1.71,2.265.444,3.78-1.065,5.453-1.538.108-2.119.241-4.063.29-6.01a2.184,2.184,0,0,1,1.018-1.879c1.648-1.2,3.24-2.471,4.839-3.734.939-.741,1.827-1.548,2.776-2.276a1.669,1.669,0,0,0,.692-1.058,19.6,19.6,0,0,0,.091-7.034c-.014-.088-.1-.163-.214-.334-.259.6-.453,1.113-.7,1.6A2.83,2.83,0,0,1,293.6,206.3c-1.877.648-3.751,1.307-5.632,1.944-.3.1-.629.095-.938.168a3.1,3.1,0,0,0-.961.3,13.084,13.084,0,0,1-4.016,1.387,2.926,2.926,0,0,1-1.282-.143c-1.54-.347-2.619-1.478-3.887-2.3a4.441,4.441,0,0,1-2.095-3.813c-.056-1.234-.139-2.469-.265-3.7a6.669,6.669,0,0,1,.6-3.6c.285-.609.428-1.284.664-1.918.6-1.6,1.169-3.213,1.824-4.791a17.349,17.349,0,0,1,2.581-3.857,1.92,1.92,0,0,1,1.958-.948c.433.06.872.1,1.3.205a20.287,20.287,0,0,1,7.174,3.745,12.692,12.692,0,0,1,4.731,6.034c.031.086.168.133.257.2a7.724,7.724,0,0,0,1.375-3.434c.322-2.374.678-4.745.921-7.128.1-1.019-.07-2.064-.064-3.1a6.91,6.91,0,0,1,.246-1.259,1.815,1.815,0,0,0-1.662-.908c-1.589-.108-3.164-.421-4.75-.606a49.249,49.249,0,0,0-5.243-.5,116.941,116.941,0,0,0-14.941,1.084c-3.329.4-6.625,1.068-9.949,1.513a162.644,162.644,0,0,0-18.312,3.7,218.635,218.635,0,0,0-27.637,9.115,4.189,4.189,0,0,0-.538.319c.156.41.3.776.433,1.148a7.278,7.278,0,0,1,.5,1.567c.26,2.547,1.588,4.663,2.7,6.866a3.622,3.622,0,0,0,.627.7l.107.492c.776.906,1.524,1.838,2.341,2.7a1.513,1.513,0,0,0,1.032.468,17.725,17.725,0,0,0,2.1-.4,4.724,4.724,0,0,1,1.289-.147,15.979,15.979,0,0,1,2.238.406,5.282,5.282,0,0,1,2.861,1.633,7.855,7.855,0,0,0,3.855,2.673c3.43.934,6.835,1.971,10.291,2.794a2.328,2.328,0,0,1,2.013,1.861c.3,1.192.631,2.378.971,3.56a14.689,14.689,0,0,1,.694,2.281,2.481,2.481,0,0,0,1.719,2.194c.809.332,1.554.856,2.6.412.432-1.187.887-2.444,1.381-3.8a2.18,2.18,0,0,1,.608,2.211c-.218.912-.41,1.83-.651,2.92,1.132.147,2.107.321,3.09.391,1.286.092,1.3.029,1.5-1.244.156-1,.361-1.985.556-3.04.316.229.5.383.7.5a.509.509,0,0,1,.145.813c-.857,1.137-.586,2.586-1.229,3.757.226.131.322.226.429.242,1.42.21,2.84.424,4.264.6.489.062.69-.313.828-.712M268.29,168.5c.277.272.428.432.591.58q2.078,1.892,4.161,3.78a16.054,16.054,0,0,0,1.357,1.174,4.589,4.589,0,0,0,3.244.935c2.535-.242,5.084-.336,7.624-.532,1.865-.143,3.725-.354,5.588-.528,2.38-.223,4.762-.435,7.141-.664.752-.072,1.5-.177,2.251-.278a1.235,1.235,0,0,0,1.119-.932c.35-1.226.759-2.439,1.033-3.682a4.866,4.866,0,0,0-.274-2.7,22.032,22.032,0,0,1-1-3.562,32.063,32.063,0,0,0-2.231-7.064,1.867,1.867,0,0,0-1.186-1.261,17.571,17.571,0,0,0-3.146-.683,33.31,33.31,0,0,0-4.79.059c-5.76.475-11.319,1.962-16.877,3.441a1.706,1.706,0,0,0-1.276,1.283,14.3,14.3,0,0,1-.6,1.562c-1.255,2.953-6.1,4.459-8.427,2.278-1.163-1.089-2.467-2.026-3.63-3.113a5.043,5.043,0,0,0-3.871-1.481,46.72,46.72,0,0,0-10.808,2.015c-2.416.671-4.774,1.547-7.15,2.357-2.267.772-4.519,1.587-6.786,2.359-.42.143-.721.333-.772.8a9.022,9.022,0,0,0,.042,2.634l1.422-.253a3.157,3.157,0,0,1,.446,2.92l-1.6.41c.035.361.063.657.09.939a2.509,2.509,0,0,1,2.737,2.165,1.724,1.724,0,0,1-.269.208c-.851.427-.943.522-.694,1.342.336,1.106.739,2.192,1.139,3.277a1.8,1.8,0,0,0,1.943,1.255c1.035-.027,2.074.081,3.11.144,1.475.09,2.947.24,4.423.28A55.659,55.659,0,0,0,253.086,179a15.744,15.744,0,0,0,7.742-3.54,5.549,5.549,0,0,0,.841-.847c1.034-1.363,2.064-2.731,3.058-4.123a11.015,11.015,0,0,1,5.323-4.085,2.431,2.431,0,0,1,2.633.493l-1.148.991c-1.09-.325-1.09-.325-1.767-.139l1.869.965-.528.526a3.318,3.318,0,0,0-2.817-.745m-41.763-2.247c-1.026.345-1.963.667-2.9.974-2.543.828-5.1,1.625-7.629,2.488a23.385,23.385,0,0,0-2.855,1.241,1.61,1.61,0,0,0-.794.81,10.892,10.892,0,0,0,.343,7.659,33.03,33.03,0,0,0,16.619-3.995c-.41-.981-.41-.981-2.121-.531l-1.134-2.023,2.438-.968-.534-1.186-1.6.477a.752.752,0,0,1-.983-.432c-.249-.462-.566-.89-.932-1.452l2.765-1.472-.678-1.592M213.757,181.8c-.12,2.172-.232,4.2-.356,6.441,8.039-2.5,15.836-5.275,23.9-7.179a17.8,17.8,0,0,0-3.2-.586,2.238,2.238,0,0,1-2.1-1.487c-.293-.656-.55-1.328-.826-1.991-.128-.308-.263-.614-.333-.777a12.434,12.434,0,0,1-1.477,1.147,43.37,43.37,0,0,1-9.941,3.779,25.089,25.089,0,0,1-3.538.534c-.663.08-1.336.078-2.126.119m31.921-59.52a25.693,25.693,0,0,0-.042-4.9c-.591,1.168-.087,2.469-.458,3.728l-.7-.4c-.225.525-.546.516-.91.143-.389-.4-.77-.812-1.315-1.388.48,3.066.449,5.374-.047,6.267l-.7-.168a32.644,32.644,0,0,0,1.1,8.259,13.337,13.337,0,0,0,.847,2.484,7.331,7.331,0,0,0,2,2.56,20.268,20.268,0,0,0-.688-2.272c-.246-.759-.446-1.534-.665-2.3s-.463-1.531-.643-2.309c-.166-.717-.774-1.353-.448-2.421l.956,1.643c.05-.63-.065-1.169.153-1.44.329-.41.182-.723.109-1.1-.325-1.686-.658-3.371-.95-5.063a2.551,2.551,0,0,1,.116-1.679,8.242,8.242,0,0,0,.6.714,7.886,7.886,0,0,0,.738.54c.068-.366.113-.617.164-.893Zm44.251,55.426a114.064,114.064,0,0,0-23.324.916,139.52,139.52,0,0,0-22.66,5.066c7.571-1.494,15-3.714,22.724-4.425,7.748-.713,15.481-1.608,23.26-1.557m-30.007-26.119a4.639,4.639,0,0,0,2.477,6.2,8.465,8.465,0,0,0,5.639,0c.824-.266.976-.6.976-1.817a6.107,6.107,0,0,1-4.483,1.44,2.968,2.968,0,0,1-2.868-1.713,6.736,6.736,0,0,1-.351-.76c-.441-1.054-.877-2.111-1.39-3.349m1.65-30.314c1.028-4.506,3.5-8.327,5.725-12.268-4.237,3.007-5.516,7.4-5.725,12.268m-30.663,46.44c-1.672.486-3.317.7-4.719,1.633l2.422-.691.086.312c-.548.146-1.1.276-1.644.442s-1.08.371-1.62.559c.447.975.481.991,1.286.794q1.794-.439,3.59-.866c.759-.181.922-.371.853-1.152a6.867,6.867,0,0,0-.254-1.031m1.345-28.9a18.14,18.14,0,0,1-2.734-5.717l1.059-.3c-.416-.561-.795-.961-.428-1.658.216-.41-.383-.838-.912-.719a5.713,5.713,0,0,0-.708.27,13.215,13.215,0,0,1,.851,1.057c.115.176.222.538.135.63a1.034,1.034,0,0,1-.7.261,7.972,7.972,0,0,1-1.213-.194,2.362,2.362,0,0,0,.844,1.9v-.987c.385,2.446,2.355,3.77,3.811,5.449m66.485,46.905a5.4,5.4,0,0,0,4.229-3.666c-1.249,1.1-2.8,1.066-4.229,1.525Zm-72.111-12.687.827,1.372,4.481-1.036c-.592-1.183-1.074-1.556-1.99-1.351-1.072.24-2.109.637-3.318,1.015m46.311-50.866a11.618,11.618,0,0,0-.3-5.761l-.908,1.418c.5.53.543.536.4,1.364a3.328,3.328,0,0,0,.8,2.979m-28.978,15.928a1.179,1.179,0,0,0-.1.38c.257,1.844,3.116,3.365,4.772,2.538.394-.2.493-.492.133-.914a2.291,2.291,0,0,1-2.7-.412c-.66-.532-1.353-1.023-2.11-1.592m49.887,64.261.342-.04a9.564,9.564,0,0,0-.242-2.064c-.974-2.847-2.127-5.611-4.345-7.769-.2-.2-.421-.375-.632-.561a21.558,21.558,0,0,1,4.877,10.433m4.3-23.39a14.578,14.578,0,0,0-6.673-.588,23.937,23.937,0,0,0,6.673.588M243.364,137.12c-.014-.109-.027-.219-.042-.327a2.472,2.472,0,0,0-.852.014c-1.182.469-2.345.988-3.515,1.489q.06.145.119.29a7.186,7.186,0,0,0,4.289-1.466m4.016-29.093a18.231,18.231,0,0,0-1.513,5.786,15.472,15.472,0,0,0,1.513-5.786m45.693,93.228c-.048-2.149-1.231-4.869-2.281-5.7l2.281,5.7m-27.3-21.357a16.23,16.23,0,0,0-6.553,1.037l6.553-1.037M292.6,201.545v3.875h.312a5.03,5.03,0,0,0-.312-3.875m-64.346-76.1-.27.111.815,2.861.6-1.113-1.149-1.859m3.457,14.309,1.079.926.864-.607-.807-.808-1.136.489M268.8,171.647c.4,1.445,1.05,2.2,1.93,2.438l-1.93-2.438m24.51,34.147c1.37-.436,1.644-1.054.865-1.638l-.865,1.638M256.985,146.4c-.331,1.711-.331,1.711.6,1.988l-.6-1.988M267.7,171.462l-.33.216,1,1.544.268-.163-.933-1.6m35.572,9.394.156-.263c-.294-.587-.857-.558-1.462-.45l1.306.714m-9.786,23.266c.765-.78.765-.78.052-1.09-.016.349-.032.665-.052,1.09m-38.143-88.916-.069,0v1.386l.069,0Z" transform="translate(-175.782 -103.266)" fill="#1a1818"/>
        <path id="Path_1700" data-name="Path 1700" d="M357.36,206.96a8.639,8.639,0,0,1,3.546-.483,15.578,15.578,0,0,1,8.405,3.133c1.416,1.054,1.6,1.78.768,3.349-.481.912-1.051,1.776-1.609,2.707a5.142,5.142,0,0,0,.757.65,3.905,3.905,0,0,1,1.759,2.329,10.1,10.1,0,0,1,.432,5.643,2.952,2.952,0,0,1-2.656,2.252c-3.5.612-7.03,1.1-10.59.41-.235-.046-.47-.093-.7-.158a5.139,5.139,0,0,1-.487-.192,148.06,148.06,0,0,0,.373-19.642m6.309,11.395-1.028-.267a6.861,6.861,0,0,0-.64,2.295l1.671-2.03a13.4,13.4,0,0,0-1.755,3.9c-.1.474-.215.933.156,1.335,1.845.207,3.956-.271,4.75-1.1-.115-.351-.22-.734-.363-1.1a18.484,18.484,0,0,0-.882-2.092,1.98,1.98,0,0,0-.869-.712,4.268,4.268,0,0,0-1.039-.227m-2.165-8.766a7.41,7.41,0,0,0,.208,5.08c.835.023,1.7,0,2.159-.862a5.843,5.843,0,0,0,.777-3.018,8.441,8.441,0,0,0-3.144-1.2m-.993,12.137,1.2-3.625a3.622,3.622,0,0,0-1.2,3.625m1.212-2.444a4.281,4.281,0,0,0-.44,3.932c.135-1.209.27-2.418.44-3.932m-1.145,3.312-.229.01.139.877.238-.04q-.073-.423-.147-.847" transform="translate(-224.317 -137.291)" fill="#fff"/>
        <path id="Path_1701" data-name="Path 1701" d="M170.3,215.781c.145.17.2.293.3.345,2.031,1.078,2.391,3.078,2.741,5.053a7.859,7.859,0,0,1,.02,2.032,3.177,3.177,0,0,1-2.8,3.237,32.635,32.635,0,0,1-10.489.347,7.282,7.282,0,0,1-1.023-.3,139.874,139.874,0,0,0,.373-19.152,8.253,8.253,0,0,1,4.447-.418A15.106,15.106,0,0,1,171,209.818c1.489,1.085,1.674,1.805.8,3.428-.471.871-1.008,1.7-1.5,2.535m-7.887,7.6a2.083,2.083,0,0,0,.4.2,12.006,12.006,0,0,0,5.3-.577.63.63,0,0,0,.438-.941c-.349-.892-.666-1.8-1.082-2.661a1.627,1.627,0,0,0-.841-.735,10.137,10.137,0,0,0-4.063-.521,16.221,16.221,0,0,0-.156,5.231m1.1-13.634a7.07,7.07,0,0,0,.113,5.01c1.546.113,1.963-.1,2.457-1.452.255-.7.378-1.442.594-2.3l-3.164-1.259" transform="translate(-159.051 -137.407)" fill="#fff"/>
        <path id="Path_1702" data-name="Path 1702" d="M385.137,207.087a20.853,20.853,0,0,1,6.216,1.969,12.609,12.609,0,0,1,6.064,7.8c.274.881.126,1.225-.766,1.357-1.328.2-2.677.263-4.19.4-.021-1.095-.039-2-.056-2.9s-.068-1-.931-1.277a6.736,6.736,0,0,0-4.617.118c-.056.553-.155,1.17-.175,1.791-.042,1.273,0,2.551-.075,3.821a1.817,1.817,0,0,0,.863,1.827c.807.516,1.576,1.1,2.408,1.566,1,.562,1.511.432,2.072-.551a8.705,8.705,0,0,0,.7-1.867c.108-.364.172-.68.623-.757a14.539,14.539,0,0,1,3.887-.392c.213,1.69.46,3.331-.306,4.919a2,2,0,0,1-.6.725,8.184,8.184,0,0,1-4.137,1.741,4.838,4.838,0,0,0-1.946.511,2.874,2.874,0,0,1-3.066-.144,10.5,10.5,0,0,1-4.024-4.332,3.2,3.2,0,0,1-.265-1.272c-.044-.8-.054-1.6-.019-2.395.088-1.993.154-3.989.342-5.973a13.7,13.7,0,0,1,.678-2.657c.4-1.292.839-2.568,1.32-4.029" transform="translate(-232.82 -137.499)" fill="#fff"/>
        <path id="Path_1703" data-name="Path 1703" d="M191.593,215.446c.861.519,1.583,1.02,2.361,1.409a3.649,3.649,0,0,1,1.942,2.724,6.274,6.274,0,0,1-.66,4.409,4.456,4.456,0,0,1-2.371,2.087,15.881,15.881,0,0,1-7.171.834c-.708-.056-1.414-.154-2.145-.235-.055-.314-.117-.542-.133-.771q-.419-6.218-.825-12.437c-.1-1.625-.177-3.253-.249-4.882-.05-1.135.219-1.508,1.378-1.684a12.174,12.174,0,0,1,2.375-.107c1.353.062,2.7.2,4.053.316a1.321,1.321,0,0,1,1.292.887c.072.206.322.347.471.533.573.717,1.193,1.4,1.7,2.168.8,1.222.756,1.487-.133,2.668-.288.383-.544.794-.861,1.151a13.122,13.122,0,0,1-1.02.932m-5.9,5.091c0,.551-.028.832,0,1.108.152,1.289.658,1.9,2.166,1.583a6.842,6.842,0,0,0,3-1.871,1.407,1.407,0,0,0-.079-1.954,10.846,10.846,0,0,0-3.347-2.026c-.952-.237-1.338-.04-1.5.938-.136.823-.186,1.661-.246,2.223m.3-10.572a12,12,0,0,0,0,3.678,1.037,1.037,0,0,0,.529.683,3.53,3.53,0,0,0,3-.141.791.791,0,0,0,.383-.636c-.2-.925-.477-1.835-.755-2.741-.038-.124-.219-.233-.357-.293a4.886,4.886,0,0,0-2.8-.55" transform="translate(-166.729 -137.397)" fill="#fff"/>
        <path id="Path_1704" data-name="Path 1704" d="M222.821,249.537a18.4,18.4,0,0,1-2.373-9.064,22.077,22.077,0,0,0,1.187,5.54c.7,1.747,1.2,3.609,2.745,4.928l-1.452-.912-.107-.492" transform="translate(-179.291 -148.508)" fill="#1a1818"/>
        <path id="Path_1705" data-name="Path 1705" d="M292.089,287.583c-.1-.069-.3-.164-.29-.2.268-.984.558-1.962.865-3.011.278,1.135-.291,2.1-.479,3.109a.708.708,0,0,0-.1.1" transform="translate(-202.822 -162.982)" fill="#1a1818"/>
        <path id="Path_1706" data-name="Path 1706" d="M279.364,234.592a12.724,12.724,0,0,1-1.7,6.158,19.293,19.293,0,0,1-8.344,7.491c-.285.143-.6.233-.871.4a5.878,5.878,0,0,1-5.739.139,13.771,13.771,0,0,1-2.926-1.713,16.6,16.6,0,0,0-3.206-2.025,25.988,25.988,0,0,0-6.475-2.1,3.424,3.424,0,0,1-2.739-2.072,2.763,2.763,0,0,1-.182-1.627,8.449,8.449,0,0,0,.18-2.127,3.566,3.566,0,0,1,1.152-3.022c.985-.983,2.025-1.91,3.035-2.867.55-.521,1.129-1.019,1.622-1.591a13.649,13.649,0,0,1,3.79-2.88c1.382-.779,2.66-1.745,3.966-2.654a7.486,7.486,0,0,0,1.286-1.074,2.512,2.512,0,0,1,2.751-.635c1.582.42,3.148.9,4.729,1.324s3.156.845,4.748,1.206a2.9,2.9,0,0,1,1.827,1.223,16.253,16.253,0,0,1,3.081,8.2,1.626,1.626,0,0,1,.012.243m-.992-3.075c.407,4.918-1.663,8.829-4.216,12.8,3.715-2.662,6.1-8.691,4.216-12.8m-5.737,12.429c3.066-3.235,5.534-6.725,5.057-11.487-.178.7-.074,1.489-.769,2.109l-.133-.412a23.714,23.714,0,0,1-4.154,9.789m-4.153,3.938c3.368-.893,5.3-3.387,6.832-6.306a24.134,24.134,0,0,1-6.832,6.306m5.273-6.825a11.214,11.214,0,0,0,2.21-5.725l-2.21,5.725m-9.325,6.953a4.861,4.861,0,0,0,3.339-2.112l-3.339,2.112m9.389-10.042.215.117.941-3.32-.2-.056-.959,3.26m-1.578,5.739-.168-.172a3.05,3.05,0,0,0-.987,1.483l1.155-1.311m4.191-11.848.092,0v-1.237l-.092,0Zm-5.908,13.7-.179-.18-.794.719.114.131.859-.67m-2.9,1.724.112.188.842-.489-.095-.162-.86.462m4.141-4.611-.139-.1-.491.639.143.107.488-.643" transform="translate(-188.097 -142.499)" fill="#1a1818"/>
        <path id="Path_1707" data-name="Path 1707" d="M296.7,245.3a4.585,4.585,0,0,1,.3,2.632c-.157,2.026-.318,4.052-.507,6.075-.059.629-.243,1.246-.31,1.875a3.237,3.237,0,0,0,.043,1.272,15.428,15.428,0,0,1,.566,5.331,2.642,2.642,0,0,1-.066.593c-.266.95-.877,1.2-1.723.668a7.705,7.705,0,0,1-.87-.721c-.725.308-1.434.547-2.08.9a2.643,2.643,0,0,1-2.423.058c-.791-.345-1.764-.438-2.156-1.479-.156-.416-.268-.749-.034-1.1a9.209,9.209,0,0,1,1.138-1.507,6.923,6.923,0,0,0,1.634-2.029,2.294,2.294,0,0,1,.873-.947,7.931,7.931,0,0,0,3.355-4.338c.746-2.054,1.676-4.059,1.723-6.31a4.454,4.454,0,0,1,.253-.989l.284.019m-5.77,13.806a5.294,5.294,0,0,0-1.537,3.733l1.537-3.733m-.769,3.744.341.083a19.1,19.1,0,0,0,1.044-3.42l-.225-.07-1.16,3.408" transform="translate(-201.339 -150.092)" fill="#1a1818"/>
        <path id="Path_1708" data-name="Path 1708" d="M302.811,247.94c.094.444.175.891.286,1.33a26.279,26.279,0,0,0,.751,2.761c.46,1.225,1.04,2.406,1.568,3.605.416.946.811,1.9,1.252,2.837.645,1.368,1.331,2.717,1.984,4.08a12.027,12.027,0,0,1,.8,1.859,1.021,1.021,0,0,1-1.2,1.4,6.485,6.485,0,0,0-2.662-.248c-.343.07-.769-.37-1.182-.495a1.9,1.9,0,0,0-.989-.06c-.992.269-1.4,0-1.377-1.066.019-.874.108-1.747.166-2.621a3.087,3.087,0,0,0,.04-.595,43.376,43.376,0,0,1,.113-8.462c.063-1.034.037-2.072.049-3.109,0-.385,0-.769,0-1.154l.4-.063" transform="translate(-206.2 -150.97)" fill="#1a1818"/>
        <path id="Path_1709" data-name="Path 1709" d="M310.089,227.907a4.278,4.278,0,0,0,.8-.595c.4-.469.735-.992,1.1-1.493l.229.162-.321.508c-.893,1.411-1.846,2.79-2.656,4.247-.393.706-.517,1.562-.855,2.34a2.379,2.379,0,0,1,.008-.626,3.766,3.766,0,0,0,0-2.753c-.231-.5.078-.932.481-1.237.374-.286.783-.525,1.18-.78.017-.011.086.017.087.028,0,.074-.011.147-.013.227-.2.366-.41.726-.617,1.086l.327.115.259-1.229" transform="translate(-208.265 -143.676)" fill="#1a1818"/>
        <path id="Path_1710" data-name="Path 1710" d="M275.609,266.715a1.379,1.379,0,0,1-1.7-.17c-.221-.213-.622-.239-1.068-.395l2.553-.643-.038-.232a7.443,7.443,0,0,1-4.264.159,12.35,12.35,0,0,0,6-1.107,3.1,3.1,0,0,0-1.476,2.387" transform="translate(-195.993 -156.373)" fill="#1a1818"/>
        <path id="Path_1711" data-name="Path 1711" d="M247.64,263.4a29.064,29.064,0,0,1,9.837,3.66,59.742,59.742,0,0,0-9.837-3.66" transform="translate(-188.262 -156.068)" fill="#1a1818"/>
        <path id="Path_1712" data-name="Path 1712" d="M256.152,256.214a22.731,22.731,0,0,0-8.756-2.12,14.893,14.893,0,0,1,8.756,2.12" transform="translate(-188.181 -152.992)" fill="#1a1818"/>
        <path id="Path_1713" data-name="Path 1713" d="M292.1,251.388a48.865,48.865,0,0,1-4.961,6.268q2.374-3.234,4.747-6.467l.214.2" transform="translate(-201.286 -152.041)" fill="#1a1818"/>
        <path id="Path_1714" data-name="Path 1714" d="M287.76,221.86c2.551.96,3.988,3.02,5.217,5.274a12.544,12.544,0,0,1-1.452-1.861,16.643,16.643,0,0,0-1.762-1.935,23.274,23.274,0,0,0-2-1.478" transform="translate(-201.49 -142.37)" fill="#1a1818"/>
        <path id="Path_1715" data-name="Path 1715" d="M294.008,231.365a38.185,38.185,0,0,0-3.75-6.114,15.827,15.827,0,0,1,3.75,6.114" transform="translate(-202.314 -143.488)" fill="#1a1818"/>
        <path id="Path_1716" data-name="Path 1716" d="M323.029,223.945a22.469,22.469,0,0,1,6.3,3.835l-6.3-3.835" transform="translate(-213.12 -143.058)" fill="#1a1818"/>
        <path id="Path_1717" data-name="Path 1717" d="M302.645,237.938v5.046a15.948,15.948,0,0,1-.291-5.022l.291-.023" transform="translate(-206.28 -147.672)" fill="#1a1818"/>
        <path id="Path_1718" data-name="Path 1718" d="M327.971,259.914a4.888,4.888,0,0,1,2.55-.655c.82-.125,1.639-.259,2.452-.387a3.669,3.669,0,0,1-2.334.68c-.821.069-1.635.219-2.668.363" transform="translate(-214.749 -154.574)" fill="#1a1818"/>
        <path id="Path_1719" data-name="Path 1719" d="M274.95,279.7a3.124,3.124,0,0,1,0,.8,7.134,7.134,0,0,1-1.129,2.694c.03-1.227,1.176-2.164.727-3.5h.4" transform="translate(-196.896 -161.443)" fill="#1a1818"/>
        <path id="Path_1720" data-name="Path 1720" d="M223.669,247.279l1.28,3.814a5.439,5.439,0,0,1-1.28-3.814" transform="translate(-180.357 -150.752)" fill="#1a1818"/>
        <path id="Path_1721" data-name="Path 1721" d="M292.9,253.659a8.051,8.051,0,0,1-2.373,3.384Z" transform="translate(-202.404 -152.855)" fill="#1a1818"/>
        <path id="Path_1722" data-name="Path 1722" d="M244.316,250.1a2.385,2.385,0,0,1,0-2.4Z" transform="translate(-187.058 -150.891)" fill="#1a1818"/>
        <path id="Path_1723" data-name="Path 1723" d="M330.194,267.772a6.573,6.573,0,0,1-.715.718c-.586.437-1.2.835-2.021,1.4a5.827,5.827,0,0,1,2.756-2.093Z" transform="translate(-214.58 -157.509)" fill="#1a1818"/>
        <path id="Path_1724" data-name="Path 1724" d="M294.183,256.921c-.586.321-.638-.8-1.292-.327l.723-1.137.569,1.465" transform="translate(-203.182 -153.448)" fill="#1a1818"/>
        <path id="Path_1725" data-name="Path 1725" d="M285.13,221.882l2.679,1.458-.121.229-2.672-1.438.115-.249" transform="translate(-200.585 -142.377)" fill="#1a1818"/>
        <path id="Path_1726" data-name="Path 1726" d="M254.737,264.406l-2.6-.863a3.258,3.258,0,0,1,2.6.863" transform="translate(-189.745 -156.103)" fill="#1a1818"/>
        <path id="Path_1727" data-name="Path 1727" d="M282.595,285.337l.247-2.393a2.859,2.859,0,0,1-.247,2.393" transform="translate(-199.787 -162.512)" fill="#1a1818"/>
        <path id="Path_1728" data-name="Path 1728" d="M225.315,248.351c.1.332.2.665.3.994s.218.631.4,1.158c-.8-.668-.737-1.434-.938-2.095l.233-.057" transform="translate(-180.823 -151.105)" fill="#1a1818"/>
        <path id="Path_1729" data-name="Path 1729" d="M323.082,276.044l.391-1.705.236.048q-.172.875-.343,1.749l-.284-.092" transform="translate(-213.137 -159.674)" fill="#1a1818"/>
        <path id="Path_1730" data-name="Path 1730" d="M331.56,267.109l1.636-1.416a2.144,2.144,0,0,1-1.657,1.393l.021.023" transform="translate(-215.926 -156.823)" fill="#1a1818"/>
        <path id="Path_1731" data-name="Path 1731" d="M254.147,262.662l1.337.6-.1.228-1.382-.584.142-.24" transform="translate(-190.36 -155.824)" fill="#1a1818"/>
        <path id="Path_1732" data-name="Path 1732" d="M334.76,232.4l-.6-.883.191-.132.6.882-.193.133" transform="translate(-216.791 -145.51)" fill="#1a1818"/>
        <path id="Path_1733" data-name="Path 1733" d="M294.8,280.634q-.066.455-.133.91l-.292-.057q.1-.447.2-.895l.223.042" transform="translate(-203.671 -161.736)" fill="#1a1818"/>
        <path id="Path_1734" data-name="Path 1734" d="M226.757,250.31l-.4-.908.2-.1q.221.458.441.918l-.24.085" transform="translate(-181.244 -151.42)" fill="#1a1818"/>
        <path id="Path_1735" data-name="Path 1735" d="M296.7,238.152l-.158-.619.177-.06.222.611-.241.068" transform="translate(-204.385 -147.518)" fill="#1a1818"/>
        <path id="Path_1736" data-name="Path 1736" d="M315.654,282.765l-.191-.711.147-.05.281.7-.237.059" transform="translate(-210.625 -162.202)" fill="#1a1818"/>
        <path id="Path_1737" data-name="Path 1737" d="M236.511,167.191c-.479.719-.944,1.446-1.439,2.154-.866,1.237-1.749,2.462-2.629,3.689a.889.889,0,0,1-.623.418c.523-.8,1.015-1.629,1.577-2.4.841-1.159,1.724-2.287,2.6-3.416a2.811,2.811,0,0,1,.532-.421Z" transform="translate(-183.045 -124.344)" fill="#1a1818"/>
        <path id="Path_1738" data-name="Path 1738" d="M238.842,164.665a18.053,18.053,0,0,1,1.128-1.639,25.843,25.843,0,0,1,3.774-3.558c-.1.318-.1.45-.167.5a28.274,28.274,0,0,0-4.375,4.42,1.474,1.474,0,0,1-.382.253l.023.021" transform="translate(-185.353 -121.798)" fill="#1a1818"/>
        <path id="Path_1739" data-name="Path 1739" d="M223.057,189.2q1.4-2.926,3.01-5.737l.239.128-3.044,5.736-.2-.127" transform="translate(-180.156 -129.711)" fill="#1a1818"/>
        <path id="Path_1740" data-name="Path 1740" d="M242.053,164a17.7,17.7,0,0,1,3.217-3.591,16.894,16.894,0,0,1-3.24,3.57Z" transform="translate(-186.412 -122.108)" fill="#1a1818"/>
        <path id="Path_1741" data-name="Path 1741" d="M240.656,165.734l-.066.57.037-.035-2.764,2.882a10.092,10.092,0,0,1,2.816-3.4l-.023-.021" transform="translate(-185.037 -123.864)" fill="#1a1818"/>
        <path id="Path_1742" data-name="Path 1742" d="M241.931,165.658,244,163.775l.143.127-1.947,2.159c-.1-.193-.158-.318-.223-.44l-.039.037" transform="translate(-186.379 -123.218)" fill="#1a1818"/>
        <path id="Path_1743" data-name="Path 1743" d="M228.364,181.294l.642-.94a.889.889,0,0,1-.444,1.108l-.2-.168" transform="translate(-181.906 -128.684)" fill="#1a1818"/>
        <path id="Path_1744" data-name="Path 1744" d="M221.192,197.148l-.44,1.1-.206-.072.373-1.112.272.08" transform="translate(-179.328 -134.196)" fill="#1a1818"/>
        <path id="Path_1745" data-name="Path 1745" d="M230.759,178.428c-.123.194-.242.391-.376.578a.533.533,0,0,1-.19-.086c.054-.216.125-.429.192-.642l.374.149" transform="translate(-182.509 -128)" fill="#1a1818"/>
        <path id="Path_1746" data-name="Path 1746" d="M243.289,191.534c3.142-1.225,6.183-2.55,9.32-3.589a73.848,73.848,0,0,1,7.544-1.873c1.948-.424,3.936-.661,5.888-1.07a1.183,1.183,0,0,1,1.516.755,36.957,36.957,0,0,1,1.517,3.384,25.62,25.62,0,0,1,1.228,12.165,2.012,2.012,0,0,1-1.6,1.948c-2.481.606-4.935,1.351-7.44,1.824a39.235,39.235,0,0,1-8.328.889,23.738,23.738,0,0,1-5.089-.625,1.422,1.422,0,0,1-1.139-.923c-.546-1.5-1.235-2.954-1.666-4.483-.574-2.034-.991-4.113-1.4-6.188-.149-.751-.731-1.461-.353-2.215m16.322,5.632a53.208,53.208,0,0,0-1.9-10.28l-1.42.324,2.4,12.025-.259.078-2.387-5.622-.263.072c.089.94.155,1.883.272,2.82.283,2.245.293,2.243-.016,2.658a11.516,11.516,0,0,0-2.063-3.8,56.512,56.512,0,0,0,1.242,9.746c1.433-.2,2.892-.417,4.353-.615a.889.889,0,0,0,.889-.788,17.746,17.746,0,0,0,.475-5.824c-.187-1.385-.219-2.8-.514-4.159-.466-2.141-1.089-4.248-1.667-6.364a2.046,2.046,0,0,0-.4-.564c.526,3.469,1.381,6.828,1.26,10.289m9.435-1.2-.336.209c-.2-.258-.4-.509-.584-.775-.834-1.219-1.654-2.447-2.5-3.658a3.351,3.351,0,0,0-.625-.519c-.29,4.193.292,8.27-.629,12.39a14.159,14.159,0,0,0,3.961-.972,1.411,1.411,0,0,0,.625-.678,8.579,8.579,0,0,0,1.074-4.01,34.4,34.4,0,0,0-.884-6.873,16.87,16.87,0,0,0-1.591-4.729c-.691-1.265-1.121-1.379-2.538-.66.685,1.694,1.479,3.361,2.03,5.1.558,1.767,1.815,3.275,2,5.171m-19.04,9.309c-.851-4.693-1.686-9.321-2.534-13.947a5.537,5.537,0,0,0-.324-.861l-3.531,1.174a62.324,62.324,0,0,0,1.931,9.024,16.181,16.181,0,0,0,.82,2.247c.922,2.06.444,2.024,3.322,2.44a1.174,1.174,0,0,0,.317-.078" transform="translate(-186.786 -130.201)" fill="#1a1818"/>
        <path id="Path_1747" data-name="Path 1747" d="M331.225,196.134c-1.81.387-3.489.727-5.157,1.108-4.786,1.1-9.677,1.018-14.535,1.281a27.444,27.444,0,0,1-3.342-.235,1.813,1.813,0,0,1-1.714-1.389,33.27,33.27,0,0,1-1.766-8.782c-.113-1.5-.313-3-.479-4.561a2.221,2.221,0,0,1,.371-.176c4.843-1.393,9.712-2.688,14.791-2.784,2.272-.042,4.548.108,6.822.184a2.2,2.2,0,0,1,1.958,1.341A28.082,28.082,0,0,1,331.211,193c.09.987.014,1.989.014,3.132m-16.484-2.87c-.282-.841-.515-1.7-.859-2.517a20.082,20.082,0,0,0-1.248-2.456,6.178,6.178,0,0,0-1.8-2.18c.194,1.77.354,3.355.546,4.936a9.7,9.7,0,0,1-.271,4.806c-.554-.941-.646-1.926-1.388-2.6-.186.6.335,1.172-.234,1.768l-1-1.248c.272,1.549.5,2.866.737,4.191,1.468.441,8.161.263,10.718-.322.181-5.355-.528-10.681-1.026-16.119a33.161,33.161,0,0,0-5.6.7c.1.559.16.991.248,1.417.468,2.27.958,4.536,1.408,6.809a4.09,4.09,0,0,1-.227,2.812m10.515-3.363-.221.047c-.094,2.359-.188,4.719-.288,7.243,1.727-.361,3.327-.684,4.921-1.033,1.213-.265,1.3-.329,1.293-1.6a27.318,27.318,0,0,0-1.787-9.483,20.363,20.363,0,0,0-1.223-2.6,1.767,1.767,0,0,0-2.049-1c.08.39.171.725.215,1.066a11.505,11.505,0,0,1,.2,2.014,27.241,27.241,0,0,0,.283,6.921,8.521,8.521,0,0,1,.016,1.691l-.214.033q-.575-1.651-1.15-3.3" transform="translate(-206.922 -128.762)" fill="#1a1818"/>
        <path id="Path_1748" data-name="Path 1748" d="M214.776,231.3v2.9a2.741,2.741,0,0,1,0-2.9" transform="translate(-177.288 -145.482)" fill="#1a1818"/>
        <path id="Path_1749" data-name="Path 1749" d="M215.689,232.732l-.066-.794.213-.017v.792l-.147.019" transform="translate(-177.705 -145.688)" fill="#1a1818"/>
        <path id="Path_1750" data-name="Path 1750" d="M222.033,201.412l-8.012,3.2c-.036-.091-.072-.182-.108-.273l8-3.186.122.263" transform="translate(-177.141 -135.541)" fill="#1a1818"/>
        <path id="Path_1751" data-name="Path 1751" d="M215.5,206.278l5.366-1.669c.023.077.048.154.071.232a23.2,23.2,0,0,1-5.437,1.437" transform="translate(-177.663 -136.682)" fill="#1a1818"/>
        <path id="Path_1752" data-name="Path 1752" d="M230.085,199.417l1.018-.325.076.2-.992.4-.1-.281" transform="translate(-182.473 -134.863)" fill="#1a1818"/>
        <path id="Path_1753" data-name="Path 1753" d="M227.295,200.536l.8-.29.083.184-.782.372-.106-.266" transform="translate(-181.553 -135.243)" fill="#1a1818"/>
        <path id="Path_1754" data-name="Path 1754" d="M271.632,138.166a18.134,18.134,0,0,0,.06-7.431,11.343,11.343,0,0,1-.06,7.431" transform="translate(-196.172 -112.323)" fill="#1a1818"/>
        <path id="Path_1755" data-name="Path 1755" d="M270.251,148.421c-.4.292-.477.5-.423,1.125a2.767,2.767,0,0,1-.674-2.055c.673.009.713.585,1.1.93" transform="translate(-195.348 -117.848)" fill="#1a1818"/>
        <path id="Path_1756" data-name="Path 1756" d="M296.339,131.536l.79-.686a40.154,40.154,0,0,0-3.1,7.5,8.614,8.614,0,0,1,.784-3.128c.5-1.251,1.043-2.489,1.566-3.732l-.042.044" transform="translate(-203.558 -112.361)" fill="#1a1818"/>
        <path id="Path_1757" data-name="Path 1757" d="M289.677,143.683a4.837,4.837,0,0,1,.151,3.447q-.075-1.723-.151-3.447" transform="translate(-202.123 -116.593)" fill="#1a1818"/>
        <path id="Path_1758" data-name="Path 1758" d="M284.887,165.934v3.341c-.811-1.118-.4-2.184,0-3.341" transform="translate(-200.389 -123.93)" fill="#1a1818"/>
        <path id="Path_1759" data-name="Path 1759" d="M248.191,127.16l-.573,3.718a5.131,5.131,0,0,1,.573-3.718" transform="translate(-188.218 -111.145)" fill="#1a1818"/>
        <path id="Path_1760" data-name="Path 1760" d="M244.31,138.944l.39,2.1a2.584,2.584,0,0,1-.388-2.1l0,0" transform="translate(-187.147 -115.03)" fill="#1a1818"/>
        <path id="Path_1761" data-name="Path 1761" d="M281.289,146.329q-.689,2.365-1.377,4.73c-.082-1.708.749-3.189,1.078-4.8l.3.065" transform="translate(-198.901 -117.444)" fill="#1a1818"/>
        <path id="Path_1762" data-name="Path 1762" d="M324.547,231.42l-1.963-1.963a4.574,4.574,0,0,1,1.963,1.963" transform="translate(-212.973 -144.875)" fill="#1a1818"/>
        <path id="Path_1763" data-name="Path 1763" d="M329.408,234.138l.938.888-.253.213-.662-1.123-.023.021" transform="translate(-215.223 -146.412)" fill="#1a1818"/>
        <path id="Path_1764" data-name="Path 1764" d="M235.748,207.593l2.12-.77a2.389,2.389,0,0,1-2.12.77" transform="translate(-184.34 -137.412)" fill="#1a1818"/>
        <path id="Path_1765" data-name="Path 1765" d="M263.729,189.137a44.716,44.716,0,0,1,2.227,10.855q-1.113-5.427-2.227-10.855" transform="translate(-193.567 -131.58)" fill="#1a1818"/>
        <rect id="Rectangle_188" data-name="Rectangle 188" width="164.72" height="127.377" transform="translate(0.001)" fill="none"/>
      </g>
      <rect id="Rectangle_189" data-name="Rectangle 189" width="164.72" height="127.377" transform="translate(0.001 3.178)" fill="none"/>
    </g>
    <rect id="Rectangle_190" data-name="Rectangle 190" width="178.637" height="181.176" fill="none"/>
  </g>
  <path id="Path_1766" data-name="Path 1766" d="M408.118,224.7h0Z" transform="translate(-326.493 -120.519)" fill="#fff"/>
  <path id="Path_1767" data-name="Path 1767" d="M56.848,224.7h0Z" transform="translate(-18.745 -120.519)" fill="#fff"/>
</svg>
