<svg xmlns="http://www.w3.org/2000/svg" xmlns:xlink="http://www.w3.org/1999/xlink" width="51" height="52" viewBox="0 0 51 52">
  <defs>
    <clipPath id="clip-path">
      <rect id="Rectangle_123" data-name="Rectangle 123" width="51" height="52" transform="translate(5401 -347)" fill="#fff" stroke="#707070" stroke-width="1" opacity="0.56"/>
    </clipPath>
  </defs>
  <g id="hamburger-close" transform="translate(-5401 347)">
    <g id="Group_116" data-name="Group 116">
      <path id="Path_1618" data-name="Path 1618" d="M5408.981-341.015h36.273l2.214,8-2.214,28.95h-37.976l-1.363-12.772,1.363-17.2Z" fill="#fff"/>
    </g>
    <g id="Mask_Group_14" data-name="Mask Group 14" clip-path="url(#clip-path)">
      <path id="Path_1567" data-name="Path 1567" d="M1838.987,79.093c-2.047-.7-2.547-2.05-2.479-3.839a26.623,26.623,0,0,0-.424-2.9c-.08-1.026.256-2.165-.08-3.074-.568-1.54.005-3.183-.505-4.559a6.677,6.677,0,0,1-.289-4.1c.62-2.12.2-4.189.353-6.269a5.414,5.414,0,0,0-.422-1.6c.111-.214.463-.569.418-.863-.28-1.816.539-3.51.517-5.29a1.777,1.777,0,0,1,.217-.857,2.423,2.423,0,0,0,.046-1.952,4.331,4.331,0,0,1-.086-2.67c.408-.815.117-1.536.3-2.211l2.554-3.208c1.15,0,2.188-.058,3.216.013a25.721,25.721,0,0,1,4.891.839,5.524,5.524,0,0,0,2.343.077,11.017,11.017,0,0,1,5.825-.042,6.169,6.169,0,0,0,3.211-.2,13.882,13.882,0,0,1,4.012-.66c2.142-.1,4.292-.042,6.438-.017.518.006,1.07-.189,1.546.339a1.094,1.094,0,0,0,1.068.029,3.059,3.059,0,0,1,2.927-.3,13.4,13.4,0,0,0,3.738.4l1.143,1.315c.237,1.03-.328,2.306.291,3.5.531,1.024-.137,2.283.643,3.32a1.566,1.566,0,0,1,.005,1.387c-.777,1.409-.3,2.9-.447,4.348-.158,1.6.254,3.215-.406,4.837-.293.721.184,1.753.344,2.874L1879,59.482c0,.912-.022,2.022.008,3.131.019.673-.169,1.348.42,1.992.239.261-.051,1.022-.131,1.551s-.428,1.127-.259,1.528c.964,2.291.26,4.654.4,6.972a12.2,12.2,0,0,1-.7,3.016l-1.208.929c.219-.043.073,0-.075.013-1.209.141-2.406-.147-3.649.41-.982.441-2.308-.247-3.357.535-.1.077-.316-.018-.468.015-.9.195-1.805-1.2-2.707,0h-2.862c-1.033,0-2.072.062-3.1-.018-1.053-.081-2.094-.308-3.143-.457a9.341,9.341,0,0,1-2.943-.39c-.8-.361-1.958.07-2.956.166-.606.058-1.279.356-1.8.184a8.4,8.4,0,0,0-5.361-.024,12.445,12.445,0,0,1-3.558.062Zm34.551-38.925a4.844,4.844,0,0,1-1.188.289,21.349,21.349,0,0,1-5.771-.41,12.809,12.809,0,0,0-3.321-.051c-1.111,0-2.465-.4-3.277.094-1.2.728-2.017-.129-3-.093-.231.009-.574-.059-.675.065-.567.695-1.32.328-1.986.4-1.869.218-3.681-.28-5.52-.456-2.641-.254-5.212.658-7.849.583l-.595.594c0,.216.006.521,0,.826-.064,2.833.372,5.723-.954,8.413.268,1.832-.335,3.667.372,5.556a7.25,7.25,0,0,1-.1,3.933A5.084,5.084,0,0,0,1839.7,63a3.441,3.441,0,0,1,.083,2.494,4.342,4.342,0,0,0-.282,3.4,26.2,26.2,0,0,1,.428,3.81c.2.2.37.371.539.539a25.773,25.773,0,0,0,6.9.612,2.211,2.211,0,0,1,.922.067,9.6,9.6,0,0,0,6.522-.14,11.527,11.527,0,0,1,1.965-.418c2.037-.249,4,.471,6,.454,2.317-.02,4.632-.4,6.948-.407a10.4,10.4,0,0,0,4.991-1.216c0-2.468,0-4.928,0-7.387,0-.607-.189-1.278.474-1.707-.2-1.353,1-2.251,1.019-3.651.049-4.3-.508-8.615.371-12.905a20.362,20.362,0,0,0,.041-4.007A3.688,3.688,0,0,0,1873.538,40.168Z" transform="translate(3568.633 -379.627)"/>
    </g>
    <path id="Subtraction_1" data-name="Subtraction 1" d="M1.761,3.686h0C1.175,3.178.011,2.164,0,2.154V1.537L1.032.1h.02c.2,0,.4,0,.6-.007s.379-.007.564-.007c.267,0,.487.007.691.023A13.516,13.516,0,0,1,5.751.649a2.772,2.772,0,0,0,.777.108A2.952,2.952,0,0,0,7.115.7,9.481,9.481,0,0,1,8.894.432a7.066,7.066,0,0,1,1.353.189l.26.05A4,4,0,0,0,11.27.75,2.922,2.922,0,0,0,12.375.543,7.456,7.456,0,0,1,14.711.116c.477-.025.981-.037,1.586-.037.494,0,1,.008,1.481.016h.006l.675.01h.01c.062,0,.126,0,.187-.01s.125-.01.187-.01a.6.6,0,0,1,.515.239.445.445,0,0,0,.323.1.475.475,0,0,0,.3-.081A1.347,1.347,0,0,1,20.9,0a2.321,2.321,0,0,1,.78.151,5.427,5.427,0,0,0,1.753.243c.138,0,.28.008.423.014l.206.263.376.48-.39,1.9-1.173.3H22.02a2.772,2.772,0,0,0-.944-.374c-.067.019-.134.044-.205.07a1.45,1.45,0,0,1-.483.117h-.134l-.448,0c-.161,0-.326,0-.491,0a7.71,7.71,0,0,1-2.291-.27,2.371,2.371,0,0,0-.711-.092c-.2,0-.409.015-.611.029s-.41.029-.611.029a5.649,5.649,0,0,1-.627-.049,5.651,5.651,0,0,0-.627-.049,1.136,1.136,0,0,0-.654.159,1.016,1.016,0,0,1-.577.19A1.779,1.779,0,0,1,12.033,3a1.75,1.75,0,0,0-.557-.125h-.059c-.032,0-.066,0-.1,0s-.069,0-.1,0c-.061,0-.135.006-.167.049a.647.647,0,0,1-.575.281c-.075,0-.153-.007-.228-.013s-.156-.013-.228-.013a.981.981,0,0,0-.125.007,4.364,4.364,0,0,1-.567.035,10.092,10.092,0,0,1-1.652-.183c-.326-.054-.662-.111-1-.146a5.339,5.339,0,0,0-.568-.029,12.116,12.116,0,0,0-1.906.2,12.072,12.072,0,0,1-1.913.2l-.182,0-.346.384v.044Z" transform="translate(5416.612 -315.199) rotate(-45)" stroke="rgba(0,0,0,0)" stroke-width="1"/>
    <path id="Intersection_2" data-name="Intersection 2" d="M2.171,24.556a1.915,1.915,0,0,1-1.2-2.088A14.12,14.12,0,0,0,.7,20.778a6.431,6.431,0,0,0-.052-1.791c-.367-.9,0-1.853-.326-2.655a3.531,3.531,0,0,1-.187-2.387,14.967,14.967,0,0,0,.228-3.651,2.911,2.911,0,0,0-.273-.93c.072-.124.3-.331.27-.5C.175,7.8.7,6.818.69,5.781a.949.949,0,0,1,.14-.5A1.285,1.285,0,0,0,.86,4.145,2.288,2.288,0,0,1,.8,2.59C1.068,2.115.88,1.7,1,1.3L2.148,0l.571.434,1.171,1-.206.992-.226.2c0,.126,0,.3,0,.481-.041,1.65.24,3.333-.616,4.9.173,1.067-.217,2.135.24,3.236a3.824,3.824,0,0,1-.065,2.291,2.685,2.685,0,0,0,.015,1.8,1.821,1.821,0,0,1,.054,1.452A2.3,2.3,0,0,0,2.9,18.762a13.817,13.817,0,0,1,.277,2.219l.348.314h0l-.029.091v1.35l-.781,1.82Z" transform="translate(5436.557 -315.231) rotate(135)" stroke="rgba(0,0,0,0)" stroke-width="1"/>
  </g>
</svg>
