<svg xmlns="http://www.w3.org/2000/svg" width="390.001" height="100.307" viewBox="0 0 390.001 100.307">
  <path id="Union_3" data-name="Union 3" d="M-6861.234,99.44c-2.036-.741-4.634-.5-6.872-.089-6.555,1.2-19.51,1.887-27.62-4.105a7.3,7.3,0,0,1-2.07.036c-1.374-.1-2.788-.2-4.042,1.114-.476.5-2.092.394-2.938.021-3.537-1.559-7.175-1.356-10.81-1.153a38.276,38.276,0,0,1-6.343.007c-5.413,1.648-10.925,1.447-16.434,1.247-2.466-.091-4.932-.18-7.387-.1-7.9.246-15.811.153-23.712,0-2.678-.053-5.329-.9-8.014-1.1-1.313-.1-2.635-.075-3.957-.048s-2.635.05-3.943-.046c-1.675-.125-3.312-1.035-4.973-1.058a6.113,6.113,0,0,0-2.145.52,5.916,5.916,0,0,1-2.213.52c-5.515-.23-11.02-.7-16.522-1.176-.467-.041-.871-.764-1.292-1.158-4.973,1.317-9.52,4.214-14.937,3.6-5.149,2.434-10.763,1.648-15.878.934a142.92,142.92,0,0,0-17.168-.91c-5.675-.112-11.373-.3-17.019.089a11.757,11.757,0,0,1-4.167-.663,12.055,12.055,0,0,0-3.852-.673c-2.824.11-5.655.025-8.415.025l-4.388-6.25-.008-.02H-7099V0h390V89h-.2c-.781,1.045-.508.822-1.936,2.7-2.434.618-5.885,1.555-9.368,2.354a50.95,50.95,0,0,1-6.794,1.176,31.6,31.6,0,0,1-3.56.048c-1.042-.023-2.086-.048-3.124.018-2.412.15-4.833.075-7.255,0-4.531-.141-9.067-.282-13.562,1.055-1.634.485-4.021,1.024-5.627-.864q-7.512,0-15.027,0c-.9,1.285-2.142,1.16-3.353,1.033a10.153,10.153,0,0,0-1.1-.073c-9.121.057-18.243.112-27.363-.025a45.225,45.225,0,0,1-7.4-1.156,8.912,8.912,0,0,0-2.386,0c-1.538.135-3.088.269-4.5-1.087-.625-.6-2.341-.094-3.554-.094h-14.154c-3.2,1.612-6.058,3.048-10.143,5.106a3.409,3.409,0,0,1-1.151-.023,6.138,6.138,0,0,0-3.812.611,5.132,5.132,0,0,1-2.488.54A13.32,13.32,0,0,1-6861.234,99.44Z" transform="translate(7099)" fill="#0e4d97"/>
</svg>
