<svg xmlns="http://www.w3.org/2000/svg" width="202.804" height="50.999" viewBox="0 0 202.804 50.999">
  <g id="read_more" data-name="read more" transform="translate(-774 -3256)">
    <path id="Path_1552" data-name="Path 1552" d="M4454.54,3261.818l34.908-2.214H4521.8l41.209,2.214H4600.3l26.8-2.214,13.946,3.628,5.833,4.36-2.418,12.394,2.418,5.794-2.418,14.812-29.825,2.821-12.191-1.209H4498.984l-48.016,1.271-1.441-13.23,1.441-11.134,1.048-12.182Z" transform="translate(-3673)" fill="#fff"/>
    <g id="Group_103" data-name="Group 103" transform="translate(154.495 495.292)">
      <g id="Group_102" data-name="Group 102">
        <path id="Path_1543" data-name="Path 1543" d="M622.065,2810.475l-1.581-2.319a9.193,9.193,0,0,0-.534-3.086,1.738,1.738,0,0,1-.078-.436c0-2.152-.507-4.275-.33-6.44.077-.932-.007-1.876.02-2.813.02-.709.075-1.419.159-2.123a11.807,11.807,0,0,1,.34-1.893,14.46,14.46,0,0,1,.753-1.876c.259-.573.564-1.125.986-1.956a17.63,17.63,0,0,0-.382-2.215c-.432-1.515-.46-1.569.568-2.773a9.813,9.813,0,0,1-.878-3.832,19.317,19.317,0,0,0,.007-2.5,20.353,20.353,0,0,1,.628-5.528,27.642,27.642,0,0,1,1.923-4.836c.2-.44.406-.874.584-1.322a1.717,1.717,0,0,1,1.032-1,6.227,6.227,0,0,1,2.253-.625,16.578,16.578,0,0,0,2.063-.3c.688-.1,1.439.257,2.073-.3.088-.077.3-.01.46-.01a26.773,26.773,0,0,1,4.533.047,49.423,49.423,0,0,0,7.4.252c2.452.061,4.907-.031,7.359.035.981.027,1.9-.267,2.847-.32a12.262,12.262,0,0,0,2.732-.583c.882-.254,1.8-.464,2.705-.656a6.531,6.531,0,0,1,3.087.446,2.361,2.361,0,0,0,.563.147c2.569.059,5.143.665,7.694.283,3.459-.518,6.914-.182,10.369-.26,3.495-.078,6.994-.017,10.492-.017a17.678,17.678,0,0,0,3.9-.06,22.039,22.039,0,0,1,4.113-.242,8.9,8.9,0,0,1,2.852.277,30.56,30.56,0,0,0,9.47.974,21.914,21.914,0,0,1,4.842.051,33.563,33.563,0,0,0,5.364.229c.84.026,1.685-.226,2.532-.279a14.711,14.711,0,0,0,2.436-.544,7.706,7.706,0,0,1,2.027-.367c2.585.137,5.123-.5,7.7-.364a20.314,20.314,0,0,0,3.317.35,9.4,9.4,0,0,1,3.272.029,9.064,9.064,0,0,0,3.79.2,36.24,36.24,0,0,1,5.518-.25c1.826-.035,3.654-.041,5.48.006.9.023,1.791.235,2.69.288a11.282,11.282,0,0,1,2.646.06,9.264,9.264,0,0,0,3.486.234c1.965-.117,3.869.5,5.823.343.82.539,1.81.092,2.64.43.913.372,1.866-.026,2.727.234a3.719,3.719,0,0,0,1.911.25c1.985-.489,3.992-.182,5.983-.3.639-.038,1.269-.223,1.908-.3a4.636,4.636,0,0,0,1.924-.284c.362-.2.925.005,1.389-.048a10.485,10.485,0,0,1,1.124-.284,18.83,18.83,0,0,0,3.751-.8c.849-.163,1.649-.574,2.495-.762a3.315,3.315,0,0,1,1.969.51,26,26,0,0,0,3.632,1.44c.136.035.246.2.378.213,1.051.119,2.107.2,3.157.327.639.075,1.268.246,1.908.3a14.692,14.692,0,0,1,2.029.036c1.52.345,3.069.4,4.6.62,1.6.232,3.04.749,3.69,2.511a22.587,22.587,0,0,1,.986,3.046,20.151,20.151,0,0,1,.242,2.7c.1,1.26.249,2.519.3,3.781s.011,2.5.011,3.726c-.78,1.371-2.426,1.647-3.412,2.809a2.065,2.065,0,0,0,.677,1.987,21.7,21.7,0,0,0,1.562,1.534,4.158,4.158,0,0,1,1.45,3.3,82.98,82.98,0,0,1-.026,8.909,40.283,40.283,0,0,1-.3,4.244,31.513,31.513,0,0,0-.277,3.162,7.512,7.512,0,0,1-.423,1.452,8.868,8.868,0,0,1-2.535.994,30.241,30.241,0,0,1-3.17.255c-.588.048-1.165.219-1.751.3a8.537,8.537,0,0,0-1.768.264,10.9,10.9,0,0,1-2.984.353c-.757.034-1.422.457-2.222.354a6.225,6.225,0,0,0-2.073.224c-1.1.235-2.31-.1-3.426.093-3.087.528-6.194.046-9.267.335a29.765,29.765,0,0,0-3.776.32c-1.023.232-2.021.123-3.014.27a20.849,20.849,0,0,1-3.161.312,12.141,12.141,0,0,1-5.94-1.182,3.021,3.021,0,0,0-1.177-.106,5.641,5.641,0,0,1-3.25.966c-1.375-.058-2.7.455-4.1.332a15.1,15.1,0,0,0-4.215.026,32.7,32.7,0,0,1-5.832.239c-.894.021-1.79-.227-2.689-.28a11.376,11.376,0,0,1-2.646-.061,15.1,15.1,0,0,0-3.331-.267c-.846-.083-1.686-.247-2.534-.3a14.792,14.792,0,0,1-2.652-.048,24.683,24.683,0,0,0-5.517-.266c-1.826-.05-3.659-.1-5.479.015-1.553.1-3.028-.428-4.571-.354a19.983,19.983,0,0,1-4.53-.043,28.7,28.7,0,0,0-4.579-.246,27.628,27.628,0,0,0-4.692.033,59.088,59.088,0,0,1-7.863.263c-2.662.038-5.341-.174-7.981.07-1.9.175-3.81.012-5.66.314-1.384.227-2.766.034-4.1.285-1.58.3-3.2.028-4.72.336-1.96.4-3.894.122-5.833.245a3.214,3.214,0,0,1-1.014-.173c-1.283-.342-2.61-.515-3.92-.757a6.885,6.885,0,0,0-2.8.441,4.84,4.84,0,0,1-1.01.179c-1.3.017-2.61.007-3.915.007h-7.673c-1.3,0-2.611-.035-3.915.01a19.98,19.98,0,0,0-3.8.243,18.3,18.3,0,0,1-3.9.06h-7.674c-1.3,0-2.615-.077-3.914.016-2.533.182-5.019-.5-7.544-.329a10.067,10.067,0,0,0-3.315-.33,7,7,0,0,1-1.411-.382Zm50.4-5.981a13.891,13.891,0,0,1,3.246.4c.73.261,1.457.01,2.069.285a4.79,4.79,0,0,0,2.078.274c2.714.009,5.429.033,8.142,0s5.445-.067,8.174-.235c4.264-.263,8.556-.07,12.836-.07h13c4.28,0,8.561.049,12.84-.014s8.579.214,12.871-.257a51.266,51.266,0,0,1,6.572-.032c2.151.042,4.32-.25,6.447.3q6.5,0,13,0a5.335,5.335,0,0,0,1-.205c1.263-.244,2.608-.964,3.814.2.054.052.208-.016.306.011.7.191,1.4.393,1.935.545a11.774,11.774,0,0,1,1.278-.23c2.773-.156,5.556.247,8.332-.285,1.28-.246,2.652.149,3.935-.347,3.254.184,6.489-.229,9.735-.311.365-.01.866.15,1.07-.031.62-.549,1.3-.166,1.932-.281s1.269-.221,1.906-.312,1.284.135,1.93-.279a1.579,1.579,0,0,1,1.366,0c.9.5,1.789.144,2.646.3.148-1.762.292-3.427.424-5.092.112-1.416.211-2.832.315-4.249,0-.051-.023-.124,0-.153.566-.62.215-1.375.311-2.062.1-.739.191-1.481.316-2.216.211-1.238-.377-2.4-.327-3.6-.731-.883-1.888-1.469-1.884-2.777l1.929-1.366c-.237-2.57.181-5.232-.291-7.911a11.918,11.918,0,0,0-1.245-4.208c-.36-.164-.727-.487-1.061-.456-1.653.155-3.249-.4-4.883-.331-1.332.056-2.6-.518-3.945-.343-.183.024-.4-.233-.6-.353-.6.691-1.331.224-1.888.387l-2.019-1.286a8.506,8.506,0,0,0-1.878.127,9.385,9.385,0,0,1-3.07.529c-.78-.044-1.565-.009-2.348-.009q-22.312,0-44.626.005a4.258,4.258,0,0,0-1.36.119,8.18,8.18,0,0,1-3.667.13,7.28,7.28,0,0,0-3.2.029,11.632,11.632,0,0,1-2.841.367c-2.927-.194-5.856.071-8.8-.281-3.267-.389-6.582.073-9.892-.306a57.524,57.524,0,0,0-8.135-.046c-2.735.077-5.43-.522-8.171-.348-1.611.1-3.235.047-4.852.01-1.578-.035-3.179.227-4.725-.3-3.4-.111-6.81.227-10.208-.289-1.554-.237-3.147.112-4.732-.293a15.71,15.71,0,0,0-2.964-.056c-.951-.05-1.9-.211-2.846-.3-1.364-.124-2.732.149-4.111-.271a11.87,11.87,0,0,0-2.648-.057c-.847-.05-1.686-.229-2.533-.291-.675-.05-1.356-.01-1.969-.01a9.452,9.452,0,0,1-3.624,1.221,22.761,22.761,0,0,1-2.656.041c-.9.053-1.791.219-2.69.3a37.462,37.462,0,0,0-4.579.257c-1.418.295-2.93.051-4.406.338-1.231.24-2.551-.173-3.778.348-2.165-.222-4.292.35-6.447.305-1.2-.025-2.4-.128-3.693-.2l-.9,1.661c.066,1.306-.514,2.621-.363,4.015a5.966,5.966,0,0,1-.281,1.276c-.06.442-.184.87-.27,1.287-.254,1.239-.743,2.544-.041,3.789a4.55,4.55,0,0,1,.309,2.2l-1.1.884,1.125,3.193a7.871,7.871,0,0,0-1.244,1.86,16,16,0,0,0-.353,2.83c-.24,2.265.446,4.489.312,6.75.508,1.066.245,2.2.327,3.31a.877.877,0,0,0,.21.433l-.257,1.727.681.834a8.132,8.132,0,0,0,3.955.439,37.961,37.961,0,0,0,5.676-.234,21.838,21.838,0,0,1,5-.046c1.7.079,3.36-.28,5.039-.3a15.071,15.071,0,0,1,4.268.232,9.1,9.1,0,0,0,3.271.027,21.81,21.81,0,0,1,3.317.371c1.8.067,3.566-.3,5.352-.338,1.876-.037,3.753-.019,5.525-.025l2.162-1.645Z"/>
        <path id="Path_1544" data-name="Path 1544" d="M640.889,2797.013a8.492,8.492,0,0,0-.3-2.322c-.248-.614.055-1.368-.312-2.064a1.332,1.332,0,0,1,.145-1.315c.181-.253.12-.678.146-.86l-1.516-1.517a7.525,7.525,0,0,0-1.067,2.5,30.432,30.432,0,0,0-.272,3.789,4.949,4.949,0,0,1-.622,2.321,19.62,19.62,0,0,1-4.631.415c-.883-.054-.885-.019-1.875-.733a8.669,8.669,0,0,1,.07-2.907c.335-.879-.067-1.773.44-2.639.307-.524.14-1.34.322-2.038s.318-1.283,1.025-1.595c.123-.055.2-.219.286-.322l-.6-1.612a3.575,3.575,0,0,0,.251-1.149c-.076-.6.281-1.142.064-1.789a6.148,6.148,0,0,1-.039-1.863v-6.088l1-.679c.235.069.785-.27,1.3.177a1.09,1.09,0,0,0,.741.072c1.65-.223,3.247.285,4.879.358a33.224,33.224,0,0,1,3.8.646,5.7,5.7,0,0,1,1.923,1.137c.2.677.3,1.109.455,1.515a4.1,4.1,0,0,1-1.189,4.878c-1.052.97-2.133,1.909-3.222,2.881,2.22,2.109,4.433,4.193,6.623,6.3a5.982,5.982,0,0,1,1.532,3.78,3.839,3.839,0,0,1-2.186.725C645.711,2797.008,643.363,2797.013,640.889,2797.013Zm-3.478-17.169v2.466c0,.726-.677,1.394-.116,2.27l1.947-1.139.627-1.687C639.1,2779.986,638.752,2779.974,637.411,2779.844Z"/>
        <path id="Path_1545" data-name="Path 1545" d="M707.892,2794.882v-3.672l-.474-.429c-.607-2-.273-3.963-.517-5.868-.183-1.425-.005-2.885-.317-4.241-.367-1.6-.089-3.163-.313-4.835.6-.072,1.116-.473,1.725-.1,2.165-.227,4.285.443,6.446.314a4.635,4.635,0,0,1,4.753,2.89,22.924,22.924,0,0,1,1.874,5.171c.267,1.158.428,2.336.679,3.482a10.178,10.178,0,0,1,.227,2.542,7.4,7.4,0,0,1-2.193,5.188,12.865,12.865,0,0,1-2.846,2.208,5.874,5.874,0,0,1-2.364.684,26.835,26.835,0,0,1-5.468-.018c-1.1-.141-2.2-.194-3.256-.261l-.508-.508.3-1.825Zm5.4-11.743a4.977,4.977,0,0,0-.667,1.538c-.074,1.905-.03,3.814-.03,5.61l.79.789c.81-.949,1.963-1.618,2.357-2.868C714.892,2786.554,714.772,2784.6,713.292,2783.139Z"/>
        <path id="Path_1546" data-name="Path 1546" d="M735.491,2777.754a13.983,13.983,0,0,1,5.023-.44,9.309,9.309,0,0,1,3.03.61,2.226,2.226,0,0,1,1.284.756c.185,1.682-.295,3.446.5,5.194a1.934,1.934,0,0,0,.771-1.585,9.283,9.283,0,0,1,.818-4.11,5.638,5.638,0,0,1,3.039-.885c1.086.049,2.175.011,3.213.011l.5.524c-.369,1.5-.5,3.047-.739,4.563a44.111,44.111,0,0,0-.222,5.509,45.268,45.268,0,0,0,.033,5.622c.094,1.049.262,2.093.278,3.156a2.365,2.365,0,0,1-.644,1.758c-.934.538-1.748-.282-2.65-.191-.865.087-1.746.019-2.781.019.44-.812.792-1.484,1.165-2.145a5.5,5.5,0,0,0,.831-3.254c-.033-.361.009-.729-.008-1.093-.047-.968-.1-1.935-.165-2.9-.062-.908-.145-1.815-.223-2.768-1.115,1.414-1.5,3.193-2.544,4.672-1.19-.138-2.433.281-3.6-.43l-.085-.762-.4-.1c-.074.1-.18.173-.182.251-.014.625.023,1.252-.014,1.875a27.66,27.66,0,0,1-.365,4.39,18.86,18.86,0,0,0-.27,2.6c-2.048-.156-4.139.468-5.986-1.282a11.182,11.182,0,0,1,.4-2.575,10.139,10.139,0,0,0,.594-3.975,9.057,9.057,0,0,1,.037-2.645c.456-1.58.123-3.159.282-4.726a9.443,9.443,0,0,0-.684-3.946A4.81,4.81,0,0,1,735.491,2777.754Z"/>
        <path id="Path_1547" data-name="Path 1547" d="M691.659,2798.21c-.174-2.231-1.365-4.075-1.991-6.159h-1.907a2.621,2.621,0,0,0-2.479-.587,54.555,54.555,0,0,1-2.134,7.075h-6.654a11.3,11.3,0,0,1,.455-2.035,55.867,55.867,0,0,0,2.352-7.143c.745-2.713,1.693-5.353,2.449-8.052a36.56,36.56,0,0,0,1.428-5.158c2.093-.754,4.217-.243,6.319-.447a6.227,6.227,0,0,1,1.515,2,61.115,61.115,0,0,1,2.537,5.987c.739,2.031,1.588,4.032,2.245,6.1a10.912,10.912,0,0,0,1.446,3.622c-.171,1.086.466,2,.641,3.018.039.228.257.428.29.655a8.172,8.172,0,0,1,.014,1.126Zm-5.7-9.461c1.22-.814,2.648-.749,3.378-1.833-.441-1.569-.87-3.094-1.294-4.6H687.7c-.294,1.023-.6,2.038-.878,3.06A15.84,15.84,0,0,0,685.961,2788.749Z"/>
        <path id="Path_1548" data-name="Path 1548" d="M668.723,2784.9v5.043c-.509.624-1.24.492-1.932.5-.626.006-1.253-.029-1.877.011a2.545,2.545,0,0,0-1.327.207c-.345.2-.955-.022-1.444-.082-.345-.042-.684-.127-1.009-.19-.585,1.13-.585,1.13-.491,3.39.111.11.209.3.334.319,1.138.175,2.28.321,3.425.475l3.135-2.527H669c.122,1.23.213,2.43.374,3.622.064.479.4.9.314,1.437a10.013,10.013,0,0,0-.015,1.473h-2.682c-2.294,0-4.589.007-6.883,0a13.483,13.483,0,0,1-4.845-.46,12.224,12.224,0,0,1,.066-3.391,15.609,15.609,0,0,0,.232-3.641c.072-1.193.016-2.394.016-3.592s-.086-2.4.023-3.591c.115-1.244-.461-2.409-.318-3.62.14-1.19-.465-2.286-.3-3.6,1.158,0,2.347-.084,3.52.02,1.654.147,3.242-.362,4.878-.338,1.668.024,3.338-.015,5.006.016a14.381,14.381,0,0,1,1.7.223,5.566,5.566,0,0,1,.839,3.5c.669,1.158.1,2.423.363,3.574l-.465.458c-1.734-.857-3.456-1.716-5.189-2.553a2.12,2.12,0,0,0-.854-.194c-1.039-.023-2.08-.009-3.1-.009l-.418.418v3.656a6.311,6.311,0,0,0,2.81-1Z"/>
        <path id="Path_1549" data-name="Path 1549" d="M781.493,2791.088c-.132.443.212,1.079-.25,1.746-.333.48.1,1.235-.312,1.9-.309.5-.044,1.232-.285,1.9a4.58,4.58,0,0,1-.774,1.253l-4.624.462a23.757,23.757,0,0,1,.054-4.467c.389-1.953-.032-3.917.3-5.814.393-2.21.036-4.42.318-6.595a31.864,31.864,0,0,0,.265-3.252,13.166,13.166,0,0,0,.824-1.287,3.245,3.245,0,0,1,2.5-1.871,6.3,6.3,0,0,1,2.069-.246c2.207.312,4.4.734,6,2.48a12.231,12.231,0,0,1,1.128,1.718,11.539,11.539,0,0,0,.007,1.248,6.135,6.135,0,0,1-2.473,5.852v.985c1.186,1.522,2.46,3.066,3.625,4.688a29.66,29.66,0,0,0,1.5,2.64,15.605,15.605,0,0,1,1.611,2.637,2.228,2.228,0,0,1,.149.713,12.6,12.6,0,0,1-3.654,1.13,5.85,5.85,0,0,0-.962-.32,8.057,8.057,0,0,0-1.176-.012,8.042,8.042,0,0,1-1.913-2.864,33.114,33.114,0,0,1-2.1-4.761,13.9,13.9,0,0,0-2.114-3.036c-.558.251-.77.606-.629,1.023C780.819,2789.622,781.143,2790.273,781.493,2791.088Zm.96-7.523,1.235-.674a5.105,5.105,0,0,0-.824-3.19c-.509.5-1.353.36-1.388,1.317a6.73,6.73,0,0,1-.673,1.857Z"/>
        <path id="Path_1550" data-name="Path 1550" d="M797.129,2776.883l.524-.523c3.782.1,7.631-.341,11.429.723.689,1.338,1.587,2.589,1.577,4.2,0,.171.21.333.249.515.121.565.16,1.122-.549,1.492-.168-.1-.369-.333-.576-.338-1.9-.046-3.615-1.172-5.609-.927-.955,1.1-1.13,2.583-1.782,4.087,1.6-.293,2.789-1.348,4.288-1.306,1.2.843,1.277,2.163,1.456,3.433a1.808,1.808,0,0,1-.549,1.328,10.061,10.061,0,0,1-1.006,1.026l-1.985.77h-1.285l-.944-.81-.3.8-.15-.16v1.71a5.046,5.046,0,0,0,2.236-.245,8.026,8.026,0,0,1,4.268-.583l.877,1.192c.153.926.282,1.711.411,2.5s.257,1.565.375,2.281l-.532.531c-.461,0-.933.033-1.4-.006-1.851-.157-3.65.556-5.5.318-1.749.659-3.563.113-5.472.383a23.678,23.678,0,0,1,.059-4.557,31.748,31.748,0,0,0,.24-5.352,26.379,26.379,0,0,0-.047-5.458C797.01,2781.534,797.386,2779.185,797.129,2776.883Z"/>
        <path id="Path_1551" data-name="Path 1551" d="M762.656,2777.3c.114,0,.4.089.518-.015.773-.706,1.51-.146,2.256.017a2.122,2.122,0,0,1,1.338,1.168,45.317,45.317,0,0,1,2.484,5.844c.206.543.138,1.149.3,1.743a37.414,37.414,0,0,1,.367,7.667,6.856,6.856,0,0,1-1.675,3.2c-.924.616-1.644,1.5-2.886,1.728a6.87,6.87,0,0,1-4.222-.255,17.524,17.524,0,0,1-2.676-1.453,3.309,3.309,0,0,1-1.069-2.039,20.174,20.174,0,0,1-.271-6.116,13.28,13.28,0,0,1,1-4.259c.435-1.026,1.005-1.989,1.42-3.006A9.624,9.624,0,0,1,762.656,2777.3Zm.613,13.536c1.094-.406,2.216-.523,2.929-1.582-.224-1.8.2-3.683-.3-5.565a11.167,11.167,0,0,0-1.092-2.007h-.711c-.139.188-.295.383-.434.589-1.1,1.636-.9,3.579-1.231,5.391a12.925,12.925,0,0,0-.023,2.3Z"/>
      </g>
    </g>
  </g>
</svg>
