<svg xmlns="http://www.w3.org/2000/svg" width="1921" height="424.299" viewBox="0 0 1921 424.299">
  <path id="Union_4" data-name="Union 4" d="M-5386,1684.16v-394h14.207l2.765-2.32c11.892-1.927,28.741-4.849,45.751-7.34,10.934-1.6,22.03-3.024,33.175-3.666,5.748-.33,11.553-.242,17.363-.154,5.1.077,10.2.154,15.275-.05,11.788-.47,23.619-.235,35.454,0,22.117.439,44.259.877,66.209-3.281,7.983-1.513,19.639-3.2,27.484,2.694q36.685,0,73.386.008c4.378-4.009,10.45-3.617,16.366-3.227,1.82.12,3.625.241,5.362.234,44.542-.18,89.087-.351,133.63.078,12.067.118,24.133,2.186,36.139,3.6a67.782,67.782,0,0,0,11.655.009c7.507-.419,15.074-.839,21.979,3.39,3.052,1.865,11.432.3,17.357.3h69.127c15.627-5.03,29.574-9.511,49.524-15.926a25.665,25.665,0,0,1,5.61.072c4.777.307,11.573.614,18.637-1.9,8.13-2.891,21.729-1.724,33.547,1.026,9.95,2.31,22.64,1.542,33.559.274,32.018-3.737,95.276-5.884,134.888,12.8a55.39,55.39,0,0,1,10.1-.115c6.706.32,13.617.639,19.75-3.464,2.329-1.552,10.212-1.23,14.346-.07,17.267,4.857,35.042,4.223,52.8,3.589,10.365-.37,20.723-.739,30.972-.018,26.432-5.141,53.344-4.513,80.244-3.888,12.046.28,24.092.56,36.089.323,38.565-.768,77.207-.477,115.8,0,13.076.165,26.027,2.8,39.14,3.432,6.417.309,12.878.23,19.339.15,6.427-.078,12.855-.158,19.239.147,8.181.384,16.177,3.228,24.283,3.3a44.524,44.524,0,0,0,10.479-1.626,42.728,42.728,0,0,1,10.8-1.618c26.934.714,53.82,2.186,80.682,3.667,2.279.124,4.258,2.382,6.313,3.61,24.285-4.1,46.487-13.136,72.949-11.233,25.142-7.591,52.563-5.139,77.542-2.914,28.144,2.507,55.888,2.5,83.845,2.844,27.707.345,55.539.939,83.111-.283,7.3-.326,13.858.869,20.343,2.064,6.152,1.133,12.236,2.267,18.819,2.1,13.786-.345,27.619-.078,41.095-.078l17.7,11.131,1.431,2.328H-3466v394Z" transform="translate(5386.5 -1260.361)" stroke="rgba(0,0,0,0)" stroke-width="1"/>
</svg>
