<svg xmlns="http://www.w3.org/2000/svg" width="1920.001" height="147.831" viewBox="0 0 1920.001 147.831">
  <path id="Union_1" data-name="Union 1" d="M-2499.7,610.958c-9.978-.747-22.7-.5-33.654-.089-32.108,1.207-95.544,1.9-135.268-4.133-3.231.144-6.652.09-10.128.037-6.725-.1-13.656-.207-19.8,1.119-2.336.5-10.243.4-14.388.023-17.32-1.569-35.148-1.365-52.958-1.16-10.389.12-20.772.238-31.046.006-26.509,1.659-53.5,1.457-80.476,1.255-12.08-.09-24.157-.181-36.187-.1-38.673.248-77.425.154-116.124,0-13.113-.053-26.1-.9-39.25-1.108-6.437-.1-12.917-.075-19.4-.049-6.444.025-12.889.051-19.289-.047-8.2-.124-16.223-1.042-24.353-1.065-3.488-.01-7,.257-10.513.525-3.63.276-7.253.553-10.828.523-27.011-.231-53.972-.706-80.909-1.185a35.41,35.41,0,0,1-6.332-1.165c-24.353,1.325-46.617,4.241-73.154,3.627-25.213,2.451-52.711,1.66-77.761.942-28.222-.81-56.046-.807-84.081-.919-27.785-.111-55.7-.3-83.346.091-7.32.1-13.9-.281-20.4-.667-6.168-.365-12.269-.732-18.868-.678-13.825.111-27.7.026-41.21.026l-17.745-3.6c-4.432-2.321-3.087-1.5-6.294-3.166h-4.112V464h1920V600h-.271c-4.943,1.3-9.338,1.162-16.75,3.164-11.924.622-28.822,1.566-45.88,2.37-10.964.515-22.092.976-33.268,1.184-5.765.106-11.587.077-17.412.049-5.115-.025-10.234-.05-15.319.017-11.823.151-23.686.076-35.555,0-22.18-.142-44.383-.283-66.4,1.06-8,.488-19.693,1.032-27.56-.871q-36.788,0-73.592,0c-4.392,1.293-10.482,1.167-16.416,1.04-1.823-.039-3.634-.077-5.375-.075q-67,.088-134.007-.025c-12.1-.038-24.2-.706-36.241-1.163-3.81-.145-7.741-.075-11.688,0-7.529.135-15.119.271-22.042-1.094-3.06-.6-11.463-.1-17.406-.1h-69.321l-49.665,5.143c-1.141.08-3.1.029-5.622-.024a138.078,138.078,0,0,0-18.692.616,112.393,112.393,0,0,1-12.174.542C-2485.007,611.832-2492.669,611.485-2499.7,610.958Z" transform="translate(3667.583 -464)" fill="#0e4d97"/>
</svg>
