<svg xmlns="http://www.w3.org/2000/svg" width="1921" height="424.299" viewBox="0 0 1921 424.299">
  <path id="Union_5" data-name="Union 5" d="M-3673,423.16v-394h14.208l2.765-2.319c11.89-1.927,28.741-4.849,45.75-7.34,10.935-1.6,22.03-3.024,33.176-3.666,5.748-.33,11.554-.242,17.363-.154,5.1.077,10.2.155,15.275-.05,11.787-.47,23.615-.235,35.449,0,22.12.438,44.262.878,66.215-3.282,7.982-1.513,19.638-3.2,27.484,2.694q36.686,0,73.385.007c4.38-4.009,10.453-3.617,16.37-3.225,1.819.12,3.623.24,5.359.233,44.542-.18,89.086-.352,133.63.078,12.067.118,24.134,2.186,36.138,3.6a67.659,67.659,0,0,0,11.654.009c7.508-.419,15.077-.839,21.981,3.391,3.051,1.864,11.431.3,17.357.3h69.128c15.625-5.028,29.573-9.509,49.524-15.925a25.7,25.7,0,0,1,5.61.071c4.776.307,11.571.615,18.635-1.9,8.132-2.89,21.73-1.723,33.547,1.027,9.95,2.31,22.64,1.543,33.56.274,32.018-3.737,95.276-5.883,134.888,12.8a55.475,55.475,0,0,1,10.1-.115c6.706.32,13.618.64,19.75-3.465,2.328-1.55,10.214-1.23,14.346-.07,17.267,4.857,35.042,4.223,52.8,3.589,10.364-.37,20.722-.74,30.971-.018,26.431-5.14,53.344-4.514,80.244-3.888,12.047.28,24.092.56,36.09.324,38.565-.768,77.206-.477,115.8,0,13.076.165,26.026,2.8,39.141,3.431,6.417.31,12.878.23,19.339.151,6.427-.079,12.854-.159,19.237.147,8.181.384,16.178,3.227,24.284,3.3a44.534,44.534,0,0,0,10.479-1.625,42.758,42.758,0,0,1,10.8-1.618c26.935.713,53.821,2.186,80.683,3.666,2.279.125,4.258,2.381,6.313,3.611,24.284-4.1,46.486-13.137,72.948-11.233,25.142-7.59,52.563-5.139,77.543-2.914,28.143,2.506,55.887,2.5,83.844,2.844,27.708.345,55.539.94,83.111-.282,7.3-.325,13.858.869,20.344,2.064,6.151,1.134,12.235,2.267,18.818,2.1,13.786-.345,27.62-.078,41.095-.078l17.694,11.132,1.43,2.327H-1753v394Z" transform="translate(3673.5 0.639)" stroke="rgba(0,0,0,0)" stroke-width="1"/>
</svg>
