<svg xmlns="http://www.w3.org/2000/svg" width="1366.001" height="145.415" viewBox="0 0 1366.001 145.415">
  <path id="Union_2" data-name="Union 2" d="M-4816.158,144.542c-7.247-.746-16.49-.5-24.445-.088-23.322,1.207-69.4,1.9-98.256-4.133-2.347.144-4.833.09-7.356.036-4.885-.1-9.92-.206-14.386,1.12-1.7.5-7.44.4-10.452.023-12.578-1.568-25.523-1.363-38.458-1.158-7.551.119-15.1.239-22.562.006-19.25,1.659-38.851,1.455-58.442,1.255-8.779-.091-17.557-.182-26.3-.1-28.092.247-56.241.153-84.351,0-9.524-.054-18.958-.9-28.51-1.109-4.676-.1-9.384-.075-14.092-.05-4.68.026-9.361.051-14.009-.047-5.959-.124-11.783-1.042-17.688-1.064a70.888,70.888,0,0,0-7.632.524,68.369,68.369,0,0,1-7.871.523c-19.62-.23-39.2-.706-58.771-1.184a19.511,19.511,0,0,1-4.6-1.167c-17.69,1.326-33.861,4.242-53.138,3.628-18.314,2.45-38.288,1.659-56.484.941-20.5-.81-40.709-.807-61.076-.918-20.183-.112-40.455-.3-60.54.091A141.926,141.926,0,0,1-5600.39,141c-4.483-.365-8.916-.732-13.711-.678-10.042.111-20.119.026-29.935.026l-12.888-3.594a5.837,5.837,0,0,1-.869-.752H-5663V0h1366V136h-8.087l-5.572,2.071c-8.661.622,7.527.244-4.863,1.049-7.965.516-16.047.976-24.166,1.182-4.189.107-8.419.078-12.651.05-3.714-.026-7.432-.05-11.124.017-8.588.151-17.206.075-25.827,0-16.111-.142-32.239-.284-48.228,1.059-5.814.489-14.3,1.033-20.019-.87q-26.722,0-53.457,0c-3.192,1.295-7.615,1.168-11.927,1.042-1.323-.04-2.638-.078-3.9-.075-32.445.058-64.894.114-97.34-.024-8.791-.038-17.581-.706-26.324-1.164-2.767-.145-5.621-.075-8.487,0-5.47.136-10.983.271-16.013-1.094-2.223-.6-8.327-.1-12.645-.1h-50.353l-36.077,5.142c-.83.081-2.257.028-4.09-.024a73.2,73.2,0,0,0-13.57.615,59.522,59.522,0,0,1-8.848.543C-4805.486,145.415-4811.05,145.069-4816.158,144.542Z" transform="translate(5663)" fill="#0e4d97"/>
</svg>
